<?xml version="1.0" encoding="UTF-8"?>
<svg id="Vrstva_1" data-name="Vrstva 1" xmlns="http://www.w3.org/2000/svg" xmlns:xlink="http://www.w3.org/1999/xlink" viewBox="0 0 238.48 145.74">
  <defs>
    <style>
      .cls-1 {
        fill: #66002c;
      }

      .cls-2 {
        fill: #fff;
      }

      .cls-3 {
        fill: none;
      }

      .cls-4 {
        clip-path: url(#clippath);
      }
    </style>
    <clipPath id="clippath">
      <rect class="cls-3" width="238.48" height="145.74"/>
    </clipPath>
  </defs>
  <rect class="cls-2" width="238.48" height="145.74"/>
  <path class="cls-1" d="M1.25,1.25h235.98v143.25H1.25V1.25ZM0,145.74h238.48V0H0v145.74Z"/>
  <g class="cls-4">
    <path class="cls-1" d="M29.97,39.97h1.8v-13.93h-1.8v13.93ZM34.6,39.97h1.82v-6.01c0-.31.04-.62.12-.85.31-1.01,1.24-1.86,2.44-1.86,1.71,0,2.31,1.34,2.31,2.96v5.76h1.82v-5.97c0-3.43-2.15-4.26-3.53-4.26-1.65,0-2.81.93-3.31,1.88h-.04l-.1-1.65h-1.61c.06.83.08,1.67.08,2.71v7.29ZM47.61,29.97h-1.82v10h1.82v-10ZM46.7,26.02c-.66,0-1.14.49-1.14,1.14s.46,1.12,1.1,1.12c.72,0,1.18-.5,1.16-1.12,0-.64-.43-1.14-1.12-1.14M57.21,38.23c-.52.23-1.2.49-2.23.49-1.98,0-3.47-1.42-3.47-3.74,0-2.09,1.24-3.78,3.53-3.78.99,0,1.67.23,2.11.47l.41-1.4c-.5-.25-1.45-.52-2.52-.52-3.26,0-5.37,2.23-5.37,5.31s1.96,5.1,4.98,5.1c1.34,0,2.4-.33,2.87-.58l-.31-1.36ZM61.15,29.97h-1.82v10h1.82v-10ZM60.24,26.02c-.66,0-1.14.49-1.14,1.14s.45,1.12,1.09,1.12c.72,0,1.18-.5,1.16-1.12,0-.64-.43-1.14-1.12-1.14M71.06,39.97c-.12-.68-.17-1.53-.17-2.4v-3.74c0-2-.74-4.09-3.8-4.09-1.26,0-2.46.35-3.28.89l.41,1.2c.7-.45,1.67-.74,2.6-.74,2.05,0,2.27,1.49,2.27,2.31v.21c-3.86-.02-6.01,1.3-6.01,3.72,0,1.45,1.03,2.87,3.06,2.87,1.43,0,2.5-.7,3.06-1.49h.06l.14,1.26h1.65ZM69.14,36.6c0,.19-.04.39-.1.58-.29.85-1.12,1.67-2.42,1.67-.93,0-1.71-.56-1.71-1.74,0-1.94,2.25-2.29,4.24-2.25v1.74ZM73.9,27.57v2.4h-1.55v1.38h1.55v5.45c0,1.18.18,2.07.7,2.6.43.5,1.12.76,1.96.76.7,0,1.26-.1,1.61-.25l-.08-1.36c-.23.06-.58.12-1.05.12-1.01,0-1.36-.7-1.36-1.94v-5.39h2.6v-1.38h-2.6v-2.87l-1.78.47ZM81.84,29.97h-1.82v10h1.82v-10ZM80.93,26.02c-.66,0-1.14.49-1.14,1.14s.45,1.12,1.09,1.12c.72,0,1.18-.5,1.16-1.12,0-.64-.43-1.14-1.12-1.14M83.44,29.97l3.8,10h1.74l3.92-10h-1.9l-1.94,5.62c-.33.91-.62,1.74-.85,2.56h-.06c-.21-.83-.48-1.65-.81-2.56l-1.96-5.62h-1.94ZM101.65,39.97c-.12-.68-.17-1.53-.17-2.4v-3.74c0-2-.74-4.09-3.8-4.09-1.26,0-2.46.35-3.28.89l.41,1.2c.7-.45,1.67-.74,2.6-.74,2.05,0,2.27,1.49,2.27,2.31v.21c-3.86-.02-6.01,1.3-6.01,3.72,0,1.45,1.03,2.87,3.06,2.87,1.43,0,2.5-.7,3.06-1.49h.06l.15,1.26h1.65ZM99.73,36.6c0,.19-.04.39-.1.58-.29.85-1.12,1.67-2.42,1.67-.93,0-1.71-.56-1.71-1.74,0-1.94,2.25-2.29,4.24-2.25v1.74ZM108.8,44.06h1.8v-5.43h.04c.6.99,1.76,1.57,3.08,1.57,2.36,0,4.54-1.78,4.54-5.37,0-3.04-1.82-5.08-4.24-5.08-1.63,0-2.81.72-3.55,1.94h-.04l-.08-1.71h-1.63c.04.95.08,1.98.08,3.26v10.83ZM110.59,34.18c0-.25.06-.52.12-.74.35-1.37,1.51-2.25,2.75-2.25,1.92,0,2.97,1.72,2.97,3.72,0,2.29-1.12,3.86-3.04,3.86-1.3,0-2.4-.87-2.73-2.13-.04-.23-.08-.47-.08-.74v-1.72ZM120.38,39.97h1.8v-5.33c0-.31.04-.6.08-.85.25-1.36,1.16-2.33,2.44-2.33.25,0,.43.02.62.06v-1.71c-.16-.04-.31-.06-.52-.06-1.22,0-2.31.85-2.77,2.19h-.08l-.06-1.96h-1.59c.06.93.08,1.94.08,3.12v6.88ZM131.09,29.74c-2.77,0-4.96,1.96-4.96,5.31,0,3.16,2.09,5.14,4.79,5.14,2.42,0,4.98-1.61,4.98-5.31,0-3.06-1.94-5.15-4.81-5.15M131.05,31.1c2.15,0,2.99,2.15,2.99,3.84,0,2.25-1.3,3.89-3.04,3.89s-3.04-1.65-3.04-3.84c0-1.9.93-3.89,3.08-3.89"/>
    <path class="cls-1" d="M209.76,66.88c0-6.24-4.46-11.21-10.74-11.21-6.67,0-11.21,4.88-11.21,11.21s4.5,11.21,11.63,11.21c4.08,0,7.26-1.66,9.26-4.54l-4.42-2.55c-.93,1.23-2.63,2.12-4.76,2.12-2.89,0-5.22-1.19-5.99-3.99h16.01c.13-.72.21-1.44.21-2.25M204.28,64.88h-10.83c.64-2.72,2.63-4.29,5.56-4.29,2.29,0,4.59,1.23,5.26,4.29M200.63,53.42l4.71-5.82h-6.58l-3.4,5.82h5.26ZM179.05,77.49h5.48v-13.04c0-5.65-3.52-8.79-8.03-8.79-2.85,0-5.05,1.06-6.33,2.97v-2.38h-5.48v21.23h5.48v-11.46c0-3.69,2-5.26,4.67-5.26,2.46,0,4.2,1.49,4.2,4.37v12.36ZM161.32,66.89c0-6.33-5.01-11.21-11.25-11.21s-11.13,4.81-11.2,11.07h0v19.23h5.48v-9.43c1.67.98,3.63,1.55,5.73,1.55,6.24,0,11.25-4.88,11.25-11.21M155.85,66.89c0,3.44-2.51,5.86-5.78,5.86s-5.73-2.42-5.73-5.86,2.5-5.86,5.73-5.86,5.78,2.42,5.78,5.86M130.22,77.49h5.48v-21.23h-5.48v11.46c0,3.69-1.99,5.26-4.67,5.26-2.46,0-4.2-1.49-4.2-4.37v-12.36h-5.48v13.04c0,5.65,3.53,8.79,8.03,8.79,2.84,0,5.05-1.06,6.32-2.97v2.38ZM111.95,77.49v-4.97c-3.14.17-4.8.13-4.8-2.17v-8.83h4.8v-5.26h-4.8v-5.94l-5.48,1.65v4.29h-3.69v5.26h3.69v8.83c0,5.73,2.59,7.98,10.27,7.13M84.95,62.29c0-1.15,1.1-1.74,2.46-1.74,1.57,0,2.76.81,3.4,2.17l4.67-2.55c-1.66-2.93-4.63-4.5-8.07-4.5-4.37,0-8.07,2.42-8.07,6.75,0,7.47,10.96,5.78,10.96,8.88,0,1.23-1.19,1.83-2.93,1.83-2.12,0-3.57-1.02-4.16-2.76l-4.76,2.68c1.53,3.27,4.67,5.05,8.92,5.05,4.54,0,8.53-2.21,8.53-6.79,0-7.81-10.95-5.86-10.95-9M75.8,66.88c0-6.33-5.01-11.21-11.25-11.21s-11.21,4.88-11.21,11.21,4.97,11.21,11.21,11.21,11.25-4.88,11.25-11.21M70.32,66.88c0,3.44-2.5,5.86-5.77,5.86s-5.73-2.42-5.73-5.86,2.51-5.86,5.73-5.86,5.77,2.42,5.77,5.86M50.22,67.01h0v-19.23h-5.48v9.43c-1.67-.98-3.63-1.55-5.73-1.55-6.24,0-11.25,4.88-11.25,11.21s5.01,11.21,11.25,11.21,11.13-4.82,11.2-11.08M44.75,66.88c0,3.44-2.51,5.86-5.73,5.86s-5.77-2.42-5.77-5.86,2.5-5.86,5.77-5.86,5.73,2.42,5.73,5.86"/>
    <path class="cls-1" d="M171.87,84.32h-6.29l-1.78,6.16h5.26l2.8-6.16ZM169.24,92.81h-5.48v21.23h5.48v-21.23ZM153.42,114.04h5.48v-13.03c0-5.65-3.52-8.79-8.03-8.79-2.84,0-5.05,1.06-6.33,2.97v-2.38h-5.48v21.23h5.48v-11.46c0-3.69,1.99-5.26,4.67-5.26,2.46,0,4.2,1.49,4.2,4.37v12.36ZM134.33,105.68c.13-.72.21-1.44.21-2.25,0-6.24-4.46-11.21-10.74-11.21-6.67,0-11.21,4.88-11.21,11.21s4.5,11.21,11.63,11.21c4.08,0,7.26-1.66,9.26-4.54l-4.42-2.55c-.93,1.23-2.63,2.12-4.75,2.12-2.89,0-5.22-1.19-5.99-3.99h16.01ZM129.07,101.43h-10.83c.64-2.72,2.63-4.29,5.56-4.29,2.29,0,4.59,1.23,5.26,4.29M102.23,114.04h5.48v-29.71h-5.48v29.71ZM96.95,103.43s0-.02,0-.03h0v-19.06h-5.48v9.43c-1.67-.98-3.63-1.55-5.73-1.55-6.24,0-11.25,4.88-11.25,11.21s5.01,11.21,11.25,11.21,11.21-4.88,11.21-11.21M91.47,103.43c0,3.44-2.51,5.86-5.73,5.86s-5.77-2.42-5.77-5.86,2.5-5.86,5.77-5.86,5.73,2.42,5.73,5.86M66.03,114.04l7.73-21.23h-5.86l-4.71,14.27-5.52-14.27h-5.99l8.71,20.55c-1.02,2.84-2.55,4.12-5.56,4.07v5.1c5.39.3,9-2.38,11.21-8.49M51.18,103.43c0-6.33-5.01-11.21-11.25-11.21-2.11,0-4.06.57-5.73,1.55v-9.43h-5.48v19.06h0s0,.02,0,.03c0,6.33,4.97,11.21,11.21,11.21s11.25-4.88,11.25-11.21M45.7,103.43c0,3.44-2.51,5.86-5.77,5.86s-5.73-2.42-5.73-5.86,2.51-5.86,5.73-5.86,5.77,2.42,5.77,5.86"/>
  </g>
</svg>