<svg version="1.2" xmlns="http://www.w3.org/2000/svg" viewBox="0 0 436 428" width="436" height="428">
	<title>pneb-tabulka</title>
	<defs>
		<clipPath clipPathUnits="userSpaceOnUse" id="cp1">
			<path d="m871.89-6243.96v15376.1h-1769.78v-15376.1z"/>
		</clipPath>
		<clipPath clipPathUnits="userSpaceOnUse" id="cp2">
			<path d="m264.7 62.2v51.09h-84.73v-51.09z"/>
		</clipPath>
		<clipPath clipPathUnits="userSpaceOnUse" id="cp3">
			<path d="m194.97 71.02v36.94h-189.59v-36.94z"/>
		</clipPath>
		<clipPath clipPathUnits="userSpaceOnUse" id="cp4">
			<path d="m871.89-6243.96v15376.1h-1769.78v-15376.1z"/>
		</clipPath>
		<clipPath clipPathUnits="userSpaceOnUse" id="cp5">
			<path d="m286.6 124.58v51.08h-82.94v-51.08z"/>
		</clipPath>
		<clipPath clipPathUnits="userSpaceOnUse" id="cp6">
			<path d="m222.14 130.79v41.97h-216.76v-41.97z"/>
		</clipPath>
		<clipPath clipPathUnits="userSpaceOnUse" id="cp7">
			<path d="m871.89-6243.96v15376.1h-1769.78v-15376.1z"/>
		</clipPath>
		<clipPath clipPathUnits="userSpaceOnUse" id="cp8">
			<path d="m310.98 186.82v51.1h-86.28v-51.1z"/>
		</clipPath>
		<clipPath clipPathUnits="userSpaceOnUse" id="cp9">
			<path d="m263.68 193.08v41.97h-258.3v-41.97z"/>
		</clipPath>
		<clipPath clipPathUnits="userSpaceOnUse" id="cp10">
			<path d="m871.89-6243.96v15376.1h-1769.78v-15376.1z"/>
		</clipPath>
		<clipPath clipPathUnits="userSpaceOnUse" id="cp11">
			<path d="m331.58 249.07v51.08h-82.59v-51.08z"/>
		</clipPath>
		<clipPath clipPathUnits="userSpaceOnUse" id="cp12">
			<path d="m232.56 257.92v36.88h-227.18v-36.88z"/>
		</clipPath>
		<clipPath clipPathUnits="userSpaceOnUse" id="cp13">
			<path d="m871.89-6243.96v15376.1h-1769.78v-15376.1z"/>
		</clipPath>
		<clipPath clipPathUnits="userSpaceOnUse" id="cp14">
			<path d="m353.8 311.36v51.08h-81.19v-51.08z"/>
		</clipPath>
		<clipPath clipPathUnits="userSpaceOnUse" id="cp15">
			<path d="m240.98 320.18v36.94h-235.6v-36.94z"/>
		</clipPath>
		<clipPath clipPathUnits="userSpaceOnUse" id="cp16">
			<path d="m871.89-6243.96v15376.1h-1769.78v-15376.1z"/>
		</clipPath>
		<clipPath clipPathUnits="userSpaceOnUse" id="cp17">
			<path d="m378.41 373.65v51.08h-84.98v-51.08z"/>
		</clipPath>
		<clipPath clipPathUnits="userSpaceOnUse" id="cp18">
			<path d="m278.07 380.63v40.62h-272.69v-40.62z"/>
		</clipPath>
		<clipPath clipPathUnits="userSpaceOnUse" id="cp19">
			<path d="m871.89-6243.96v15376.1h-1769.78v-15376.1z"/>
		</clipPath>
		<clipPath clipPathUnits="userSpaceOnUse" id="cp20">
			<path d="m452.65 15.83v71.29h-171.32v-71.29z"/>
		</clipPath>
		<clipPath clipPathUnits="userSpaceOnUse" id="cp21">
			<path d="m452.65 160.44v71.29h-122.64v-71.29z"/>
		</clipPath>
		<clipPath clipPathUnits="userSpaceOnUse" id="cp22">
			<path d="m452.04 349.44v71.3h-95.19v-71.3z"/>
		</clipPath>
		<clipPath clipPathUnits="userSpaceOnUse" id="cp23">
			<path d="m871.89-6243.96v15376.1h-1769.78v-15376.1z"/>
		</clipPath>
	</defs>
	<style>
		.s0 { fill: #039504 } 
		.s1 { fill: none;stroke: #666666;stroke-width: .9 } 
		.s2 { mix-blend-mode: multiply;fill: #000000 } 
		.s3 { fill: #44cb33 } 
		.s4 { fill: #d3d333 } 
		.s5 { fill: #ecee2b } 
		.s6 { fill: #fac42c } 
		.s7 { fill: #fc9103 } 
		.s8 { fill: #fb2b2b } 
		.s9 { fill: none;stroke: #039504;stroke-width: 1.9 } 
		.s10 { fill: none;stroke: #fc9103;stroke-width: 1.9;stroke-dasharray: 7.360354693779821,7.360354693779821 } 
		.s11 { fill: none;stroke: #fc9103;stroke-width: 1.9 } 
	</style>
	<g id="Folder 1">
		<path class="s0" d="m220.8 27.2l-22.7-26.7h-197.2v53.2h197.2v0.1z"/>
		<path class="s1" d="m220.8 27.2l-22.7-26.7h-197.2v53.2h197.2v0.1z"/>
		<path id="font_59_13" class="s2" d="m18 21.1q-0.7 0-0.9 0.7l-1.1 6.8c-0.1 0.6-0.2 1.1-0.2 1.7h-0.2c-0.1-0.6-0.2-1.1-0.3-1.7l-1.1-6.8q-0.2-0.7-0.9-0.7h-2.2q-0.8 0-0.9 0.8l-0.3 11.6h2.1l0.3-10.6h0.3l1.4 8.3c0.1 0.5 0.4 0.7 0.9 0.7h1.6q0.7 0 0.9-0.7l1.3-8.3h0.3l0.3 10.6h2.2l-0.4-11.6c0-0.5-0.3-0.8-0.9-0.8z"/>
		<path id="font_59_11" fill-rule="evenodd" class="s2" d="m25.6 21.1v12.4h-2.3v-12.4z"/>
		<path id="font_59_13" class="s2" d="m35.6 21.1q-0.8 0-0.9 0.7l-1.2 6.8c-0.1 0.6-0.1 1.1-0.2 1.7h-0.2c-0.1-0.6-0.1-1.1-0.2-1.7l-1.2-6.8q-0.1-0.7-0.8-0.7h-2.3q-0.8 0-0.8 0.8l-0.4 11.6h2.2l0.2-10.6h0.3l1.4 8.3c0.1 0.5 0.4 0.7 0.9 0.7h1.6q0.8 0 0.9-0.7l1.4-8.3h0.3l0.3 10.6h2.1l-0.4-11.6c0-0.5-0.3-0.8-0.8-0.8z"/>
		<path id="font_59_15" class="s2" d="m44.8 20.8c-3.2 0-4.3 1.6-4.3 6.5 0 4.9 1.1 6.4 4.3 6.4 3.2 0 4.3-1.5 4.3-6.4 0-4.9-1.1-6.5-4.3-6.5zm0 2c1.5 0 2 1 2 4.5 0 3.5-0.5 4.5-2 4.5-1.5 0-1.9-1-1.9-4.5 0-3.5 0.4-4.5 1.9-4.5z"/>
		<path id="font_59_25" class="s2" d="m54.1 20.2h1l2.2-2.4-0.7-0.9-1.9 1.5h-0.2l-1.9-1.5-0.7 0.9zm4.6 13.4l-0.8-3.9c-0.3-1.2-1-1.7-1.5-1.9v-0.1c1.4-0.2 1.9-1.3 1.9-3.1 0-2.8-1.1-3.7-3.7-3.7-1.8 0-2.6 0.1-3.8 0.2v12.5h2.2v-5h1.5c0.6 0 0.9 0.3 1.1 1.1l0.7 3.9zm-5.6-6.9v-3.9h1.5c1.2 0 1.5 0.4 1.5 1.9 0 1.6-0.3 2-1.5 2z"/>
		<path id="font_59_21" class="s2" d="m63.3 20.5l3.3-2.1-1-1.6-2.9 2.7zm2.2 9.5l0.7 3.5h2.3l-2.8-11.8c-0.1-0.4-0.4-0.6-0.8-0.6h-2.1c-0.4 0-0.7 0.2-0.8 0.6l-2.9 11.8h2.3l0.7-3.5zm-0.4-1.8h-2.6l0.9-4.3c0.1-0.4 0.2-0.8 0.2-1.1h0.4c0.1 0.3 0.2 0.7 0.3 1.1z"/>
		<path id="font_59_8" class="s2" d="m73.5 20.9c-1.5 0-2.7 0.1-3.9 0.2v12.4c1.2 0.1 2.4 0.2 3.9 0.2 3.2 0 4.3-1.5 4.3-6.4 0-4.9-1.1-6.4-4.3-6.4zm0 10.9q-0.9 0-1.6 0v-9c0.5 0 1 0 1.6 0 1.5 0 1.9 1.1 1.9 4.5 0 3.4-0.4 4.5-1.9 4.5z"/>
		<path id="font_59_14" class="s2" d="m88 21.1h-2.1v7.9q0 1 0 2.1h-0.2l-0.5-2.1-2.1-7.3c-0.2-0.4-0.4-0.6-0.9-0.6h-1.9c-0.5 0-0.8 0.3-0.8 0.8v11.6h2.2v-8.1c0-0.7 0-1.4 0-2h0.1c0.2 0.6 0.4 1.4 0.6 2l2.1 7.4c0.1 0.5 0.4 0.7 0.9 0.7h1.9q0.7 0 0.7-0.8z"/>
		<path id="font_59_24" class="s2" d="m93.2 19.9h0.9l2.2-2.4-0.6-0.9-2 1.5h-0.1l-2-1.5-0.6 0.9zm3.6 11.8h-3.9c-0.5 0-0.6-0.2-0.6-1v-2.8h3.9v-1.7h-3.9v-2.2c0-0.8 0.1-1.1 0.6-1.1h3.9l0.1-1.7c-1.4-0.1-3.1-0.1-4.6-0.1-1.4 0-2.3 0.9-2.3 2.3v7.8c0 1.5 0.9 2.4 2.3 2.4 1.5 0 3.2 0 4.6-0.2z"/>
		<path id="font_59_1" class="s2" d=""/>
		<path id="font_59_23" class="s2" d="m108.2 18.4l-1.1-1.6-2.9 2.7 0.6 1zm1.3 2.6h-2.3v7.6c0 2.4-0.4 3.1-1.7 3.1-1.3 0-1.8-0.7-1.8-3.1v-7.6h-2.2v7.6c0 3.7 1.1 5.1 4.1 5.1 2.8 0 3.9-1.4 3.9-5.1z"/>
		<path id="font_59_18" class="s2" d="m114.6 20.9c-2.6 0-3.6 0.4-3.6 3.3 0 1.8 0.5 3 2.1 3.6l1.9 0.8c0.6 0.3 1 0.5 1 1.6 0 1.3-0.3 1.5-1.5 1.5-0.6 0-1.2 0-3.3 0l-0.1 1.6c1.5 0.4 2.8 0.4 3.4 0.4 2.8 0 3.7-0.6 3.7-3.5 0-1.8-0.5-2.9-2.1-3.6l-1.9-0.7c-0.7-0.3-1-0.6-1-1.7 0-1.3 0.4-1.4 1.5-1.4 1 0 2.2 0 3.1 0.1l0.1-1.6c-1.1-0.4-2.3-0.4-3.3-0.4z"/>
		<path id="font_59_16" class="s2" d="m123.6 20.9c-1.8 0-2.6 0-3.8 0.2v12.4h2.3v-4.7q0.8 0.1 1.8 0.1c2.5 0 3.4-0.8 3.4-4 0-3.1-0.9-4-3.7-4zm-1.5 6.2v-4.3h1.5c1.1 0 1.4 0.4 1.4 2.1 0 1.7-0.3 2.2-1.4 2.2z"/>
		<path id="font_59_15" class="s2" d="m132.7 20.8c-3.2 0-4.3 1.6-4.3 6.5 0 4.9 1.1 6.4 4.3 6.4 3.2 0 4.3-1.5 4.3-6.4 0-4.9-1.1-6.5-4.3-6.5zm0 2c1.5 0 1.9 1 1.9 4.5 0 3.5-0.4 4.5-1.9 4.5-1.5 0-1.9-1-1.9-4.5 0-3.5 0.4-4.5 1.9-4.5z"/>
		<path id="font_59_17" class="s2" d="m146.6 33.5l-0.9-3.9c-0.2-1.2-0.9-1.7-1.4-1.8v-0.1c1.4-0.2 1.9-1.3 1.9-3.1 0-2.9-1.1-3.7-3.7-3.7-1.8 0-2.6 0-3.8 0.2v12.4h2.2v-5h1.5c0.6 0 0.9 0.3 1.1 1.2l0.7 3.8zm-5.7-6.8v-3.9h1.6c1.1 0 1.5 0.4 1.5 1.9 0 1.5-0.4 2-1.5 2z"/>
		<path id="font_59_14" class="s2" d="m156.5 21.1h-2.1v7.9q0 1 0 2.1h-0.2l-0.5-2.1-2.1-7.3c-0.2-0.4-0.4-0.6-0.9-0.6h-1.9c-0.5 0-0.8 0.3-0.8 0.8v11.6h2.2v-8.1c0-0.7 0-1.4 0-2h0.1c0.2 0.6 0.4 1.4 0.6 2l2.1 7.4c0.1 0.5 0.4 0.7 0.9 0.7h1.9q0.7 0 0.7-0.8z"/>
		<path id="font_59_21" class="s2" d="m161.7 20.5l3.4-2.1-1.1-1.6-2.9 2.7zm2.2 9.5l0.8 3.5h2.3l-2.9-11.8c-0.1-0.4-0.4-0.6-0.8-0.6h-2.1c-0.4 0-0.7 0.2-0.8 0.6l-2.9 11.8h2.3l0.8-3.5zm-0.4-1.8h-2.6l0.9-4.3c0.1-0.4 0.1-0.8 0.2-1.1h0.4c0 0.3 0.1 0.7 0.2 1.1z"/>
		<path id="font_61_1" class="s2" d="m194.3 39.7h4.5l-7.4-23.6c-0.2-0.7-0.8-1.1-1.6-1.1h-4.4c-0.7 0-1.3 0.4-1.6 1.1l-7.4 23.6h4.6l2-7h9.2zm-10.1-10.7l2.5-8.5 0.5-2.1h1c0.1 0.7 0.4 1.4 0.5 2.1l2.5 8.5z"/>
		<path class="s3" d="m220.8 62.8h-219.9v53.2h219.9v0.1l22.7-26.7z"/>
		<path class="s1" d="m220.8 62.8h-219.9v53.2h219.9v0.1l22.7-26.7z"/>
		<g id="Clip-Path" clip-path="url(#cp1)">
			<g>
				<g style="opacity: .9">
					<g id="Clip-Path" clip-path="url(#cp2)">
						<g>
							<path id="font_64_8" class="s2" d="m212.4 89.2v-0.1c3-0.3 4.2-2.1 4.2-5.7 0-5.1-2.2-6.4-8.4-6.4-4 0-6.1 0-8.8 0.3v24.7c3 0.2 5.4 0.3 9.9 0.3 5.8 0 8.1-1.4 8.1-6.5 0-3.9-1.3-6.3-5-6.6zm-4.4-8.6c3.3 0 4.3 0.6 4.3 3.4 0 2.8-1 3.5-4 3.5h-4.5v-6.9zm0.6 18q-2.6 0-4.7 0v-7.8h4.6c3.4 0 4.5 0.9 4.5 4.2 0 3-1.1 3.6-4.4 3.6z"/>
						</g>
					</g>
				</g>
				<g style="opacity: .9">
					<g id="Clip-Path" clip-path="url(#cp3)">
						<g>
							<path id="font_66_19" class="s2" d="m18.2 83.4h-2.3l-1.8 9.3c-0.1 0.5-0.2 0.9-0.2 1.4h-0.4c-0.1-0.5-0.1-0.9-0.2-1.4l-1.8-9.3h-2.3l2.7 11.8c0.1 0.4 0.4 0.6 0.8 0.6h2c0.4 0 0.7-0.2 0.8-0.6z"/>
							<path id="font_66_9" class="s2" d="m26 94h-3.9c-0.4 0-0.6-0.3-0.6-1.1v-2.7h4v-1.8h-4v-2.2c0-0.7 0.2-1 0.6-1h3.9l0.1-1.7c-1.3-0.2-3-0.2-4.5-0.2-1.4 0-2.3 0.9-2.3 2.4v7.8c0 1.4 0.8 2.3 2.3 2.3 1.5 0 3.2 0 4.5-0.1z"/>
							<path id="font_66_12" class="s2" d="m29.9 83.4h-2.2v9.9c0 1.5 0.6 2.5 2.4 2.5 1.4 0 2.8 0 4.1-0.1l-0.1-1.8h-3.4c-0.6 0-0.8-0.2-0.8-1z"/>
							<path id="font_66_13" class="s2" d="m43.4 83.4q-0.7 0-0.9 0.7l-1.1 6.7c-0.1 0.6-0.2 1.2-0.3 1.8h-0.1c-0.1-0.6-0.2-1.2-0.3-1.8l-1.1-6.7q-0.2-0.7-0.9-0.7h-2.2q-0.8 0-0.9 0.8l-0.3 11.6h2.1l0.3-10.6h0.3l1.3 8.3c0.2 0.5 0.5 0.7 1 0.7h1.5q0.8 0 1-0.7l1.3-8.3h0.3l0.3 10.6h2.2l-0.4-11.6c0-0.5-0.3-0.8-0.9-0.8z"/>
							<path id="font_66_11" fill-rule="evenodd" class="s2" d="m51 83.4v12.4h-2.3v-12.4z"/>
							<path id="font_66_1" class="s2" d=""/>
							<path id="font_66_23" class="s2" d="m62.7 80.7l-1.1-1.6-2.9 2.7 0.7 0.9zm1.2 2.7h-2.3v7.5c0 2.4-0.4 3.2-1.7 3.2-1.3 0-1.8-0.8-1.8-3.2v-7.5h-2.2v7.5c0 3.8 1.1 5.2 4.1 5.2 2.8 0 3.9-1.4 3.9-5.2z"/>
							<path id="font_66_18" class="s2" d="m69.1 83.1c-2.5 0-3.6 0.5-3.6 3.4 0 1.8 0.5 3 2.1 3.6l1.9 0.8c0.7 0.3 1 0.5 1 1.6 0 1.3-0.3 1.5-1.5 1.5-0.6 0-1.2 0-3.3 0l-0.1 1.6c1.5 0.4 2.8 0.4 3.4 0.4 2.8 0 3.7-0.6 3.7-3.5 0-1.8-0.5-3-2.1-3.6l-1.9-0.7c-0.7-0.3-1-0.6-1-1.7 0-1.3 0.4-1.4 1.5-1.4 1 0 2.2 0 3.1 0.1l0.1-1.6c-1.1-0.4-2.3-0.5-3.3-0.5z"/>
							<path id="font_66_16" class="s2" d="m78.1 83.2c-1.8 0-2.6 0-3.8 0.2v12.4h2.3v-4.7q0.9 0.1 1.8 0.1c2.5 0 3.4-0.8 3.4-4 0-3.1-0.9-4-3.7-4zm-1.5 6.2v-4.3h1.5c1.1 0 1.4 0.4 1.4 2.1 0 1.7-0.3 2.2-1.4 2.2z"/>
							<path id="font_66_15" class="s2" d="m87.2 83.1c-3.2 0-4.3 1.5-4.3 6.5 0 4.9 1.1 6.4 4.3 6.4 3.2 0 4.3-1.5 4.3-6.4 0-5-1.1-6.5-4.3-6.5zm0 2c1.5 0 1.9 1 1.9 4.5 0 3.4-0.4 4.5-1.9 4.5-1.5 0-1.9-1.1-1.9-4.5 0-3.5 0.4-4.5 1.9-4.5z"/>
							<path id="font_66_17" class="s2" d="m101.1 95.8l-0.9-3.9c-0.2-1.2-0.9-1.7-1.4-1.8v-0.1c1.4-0.2 1.9-1.3 1.9-3.2 0-2.8-1.1-3.6-3.7-3.6-1.8 0-2.6 0-3.8 0.2v12.4h2.2v-5h1.5c0.6 0 0.9 0.3 1.1 1.1l0.7 3.9zm-5.7-6.8v-3.9h1.6c1.1 0 1.5 0.3 1.5 1.9 0 1.5-0.4 2-1.5 2z"/>
							<path id="font_66_14" class="s2" d="m111.1 83.4h-2.2v7.8q0 1.1 0 2.2h-0.2l-0.5-2.1-2.1-7.3c-0.2-0.4-0.4-0.6-0.9-0.6h-1.9c-0.5 0-0.8 0.2-0.8 0.8v11.6h2.2v-8.1c0-0.7 0-1.4 0-2h0.1c0.2 0.6 0.4 1.4 0.6 1.9l2.1 7.5c0.1 0.5 0.4 0.7 0.9 0.7h1.9q0.7 0 0.8-0.8z"/>
							<path id="font_66_21" class="s2" d="m116.2 82.7l3.4-2-1.1-1.6-2.9 2.7zm2.2 9.5l0.8 3.5h2.3l-2.9-11.8c-0.1-0.4-0.4-0.6-0.8-0.6h-2.1c-0.4 0-0.7 0.2-0.8 0.6l-2.9 11.8h2.3l0.8-3.5zm-0.4-1.8h-2.6l0.9-4.3c0.1-0.4 0.1-0.8 0.2-1.1h0.4c0 0.3 0.1 0.7 0.2 1.1z"/>
						</g>
					</g>
				</g>
			</g>
		</g>
		<path class="s4" d="m243.6 125.1l-0.1 0.2h-242.6v53.2h242.7v-0.1l22.7-26.6z"/>
		<path class="s1" d="m243.6 125.1l-0.1 0.2h-242.6v53.2h242.7v-0.1l22.7-26.6z"/>
		<g id="Clip-Path" clip-path="url(#cp4)">
			<g>
				<g style="opacity: .9">
					<g id="Clip-Path" clip-path="url(#cp5)">
						<g>
							<path id="font_69_9" class="s2" d="m232.3 139.2c-7.4 0-10 3.4-10 12.8 0 9.4 2.6 12.8 10 12.8 3.4 0 5.4-0.3 7.6-1l-0.4-3.3c-2.1 0.3-4 0.3-7.2 0.3-4.1 0-5.3-2-5.3-8.8 0-6.8 1.2-8.9 5.3-8.9 3 0 4.5 0.1 6.7 0.3l0.4-3.4c-2.1-0.6-3.8-0.8-7.1-0.8z"/>
						</g>
					</g>
				</g>
				<g style="opacity: .9">
					<g id="Clip-Path" clip-path="url(#cp6)">
						<g>
							<path id="font_71_23" class="s2" d="m16.8 143l-1.1-1.6-2.9 2.7 0.6 0.9zm1.2 2.7h-2.2v7.5c0 2.4-0.4 3.2-1.7 3.2-1.4 0-1.8-0.8-1.8-3.2v-7.5h-2.2v7.5c0 3.8 1 5.1 4.1 5.1 2.8 0 3.8-1.3 3.8-5.1z"/>
							<path id="font_71_18" class="s2" d="m23.2 145.4c-2.6 0-3.6 0.5-3.6 3.4 0 1.8 0.5 3 2 3.6l2 0.8c0.6 0.3 0.9 0.5 0.9 1.6 0 1.3-0.2 1.5-1.4 1.5-0.6 0-1.2 0-3.3-0.1l-0.1 1.7c1.5 0.4 2.8 0.4 3.4 0.4 2.7 0 3.7-0.6 3.7-3.5 0-1.8-0.5-3-2.1-3.6l-1.9-0.7c-0.7-0.3-1-0.6-1-1.7 0-1.3 0.4-1.4 1.4-1.4 1.1 0 2.3 0 3.1 0.1l0.2-1.7c-1.2-0.3-2.3-0.4-3.3-0.4z"/>
							<path id="font_71_16" class="s2" d="m32.2 145.5c-1.8 0-2.6 0-3.8 0.1v12.5h2.2v-4.7q0.9 0.1 1.9 0.1c2.5 0 3.3-0.9 3.3-4 0-3.2-0.8-4-3.6-4zm-1.6 6.2v-4.4h1.6c1.1 0 1.4 0.5 1.4 2.2 0 1.7-0.3 2.2-1.4 2.2z"/>
							<path id="font_71_15" class="s2" d="m41.3 145.4c-3.2 0-4.3 1.5-4.3 6.5 0 4.9 1.1 6.4 4.3 6.4 3.1 0 4.3-1.5 4.3-6.4 0-5-1.2-6.5-4.3-6.5zm0 1.9c1.5 0 1.9 1.1 1.9 4.6 0 3.4-0.4 4.5-1.9 4.5-1.5 0-2-1.1-2-4.5 0-3.5 0.5-4.6 2-4.6z"/>
							<path id="font_71_17" class="s2" d="m55.2 158.1l-0.9-3.9c-0.2-1.2-0.9-1.7-1.4-1.8v-0.1c1.4-0.2 1.9-1.3 1.9-3.2 0-2.8-1.1-3.6-3.7-3.6-1.8 0-2.6 0-3.8 0.1v12.5h2.2v-5h1.5c0.6 0 0.9 0.3 1 1.1l0.8 3.9zm-5.7-6.8v-4h1.6c1.1 0 1.4 0.4 1.4 2 0 1.5-0.3 1.9-1.4 2z"/>
							<path id="font_71_14" class="s2" d="m65.1 145.6h-2.1v7.9q0 1.1 0 2.2h-0.2l-0.6-2.1-2-7.3c-0.2-0.5-0.5-0.7-0.9-0.7h-1.9c-0.5 0-0.8 0.3-0.8 0.9v11.6h2.2v-8.1c0-0.7 0-1.4 0-2h0.1c0.2 0.6 0.4 1.4 0.5 1.9l2.2 7.5c0.1 0.5 0.4 0.7 0.9 0.7h1.8q0.8 0 0.8-0.8z"/>
							<path id="font_71_21" class="s2" d="m70.3 145l3.4-2-1.1-1.6-2.9 2.7zm2.2 9.5l0.8 3.5h2.3l-2.9-11.8c-0.1-0.4-0.4-0.6-0.8-0.6h-2.1c-0.4 0-0.7 0.2-0.8 0.6l-2.9 11.8h2.3l0.8-3.5zm-0.4-1.9h-2.6l0.9-4.3c0-0.3 0.1-0.7 0.2-1h0.4c0 0.3 0.1 0.7 0.2 1z"/>
						</g>
					</g>
				</g>
			</g>
		</g>
		<path class="s5" d="m266.3 187.4v0.1h-265.4v53.2h265.4l22.7-26.6z"/>
		<path class="s1" d="m266.3 187.4v0.1h-265.4v53.2h265.4l22.7-26.6z"/>
		<g id="Clip-Path" clip-path="url(#cp7)">
			<g>
				<g style="opacity: .9">
					<g id="Clip-Path" clip-path="url(#cp8)">
						<g>
							<path id="font_74_10" class="s2" d="m253.4 201.6c-3.6 0-6.5 0.1-9.2 0.3v24.7c2.7 0.2 5.6 0.3 9.2 0.3 7.4 0 10.1-3 10.1-12.7 0-9.6-2.7-12.6-10.1-12.6zm0 21.6q-2.7-0.1-4.7-0.1v-17.8c1.4 0 2.9 0 4.7 0 4.1 0 5.4 2.1 5.4 8.9 0 6.8-1.3 9-5.4 9z"/>
						</g>
					</g>
				</g>
				<g style="opacity: .9">
					<g id="Clip-Path" clip-path="url(#cp9)">
						<g>
							<path id="font_76_13" class="s2" d="m18 207.9q-0.7 0-0.9 0.8l-1.1 6.7c-0.1 0.6-0.2 1.2-0.2 1.7h-0.2c-0.1-0.5-0.2-1.1-0.3-1.7l-1.1-6.7q-0.2-0.8-0.9-0.8h-2.2q-0.8 0-0.9 0.9l-0.3 11.6h2.1l0.3-10.6h0.3l1.4 8.2c0.1 0.5 0.4 0.8 0.9 0.8h1.6q0.7 0 0.9-0.8l1.3-8.2h0.3l0.3 10.6h2.2l-0.4-11.6c0-0.6-0.3-0.9-0.9-0.9z"/>
							<path id="font_76_22" class="s2" d="m26.3 207l3.3-2-1-1.6-2.9 2.6zm3.7 11.6h-3.9c-0.5 0-0.6-0.3-0.6-1.1v-2.7h3.9v-1.8h-3.9v-2.2c0-0.7 0.1-1 0.6-1h3.9l0.1-1.7c-1.4-0.2-3.1-0.2-4.6-0.2-1.4 0-2.3 0.9-2.3 2.4v7.8c0 1.4 0.9 2.3 2.3 2.3 1.5 0 3.2 0 4.6-0.1z"/>
							<path id="font_76_14" class="s2" d="m40.2 207.9h-2.1v7.9q0 1.1 0 2.2h-0.2l-0.5-2.1-2.1-7.3c-0.2-0.5-0.4-0.7-0.9-0.7h-1.9c-0.5 0-0.8 0.3-0.8 0.9v11.6h2.2v-8.2c0-0.6 0-1.3 0-1.9h0.1c0.2 0.6 0.4 1.4 0.6 1.9l2.1 7.5c0.1 0.5 0.4 0.7 0.9 0.7h1.8q0.8 0 0.8-0.8z"/>
							<path id="font_76_24" class="s2" d="m45.4 206.7h0.9l2.2-2.3-0.6-0.9-2 1.4h-0.1l-2-1.4-0.6 0.9zm3.6 11.8h-3.9c-0.5 0-0.6-0.3-0.6-1v-2.8h3.9v-1.8h-3.9v-2.1c0-0.8 0.1-1.1 0.6-1.1h3.9l0.1-1.7c-1.4-0.2-3.1-0.2-4.6-0.2-1.4 0-2.3 0.9-2.3 2.4v7.8c0 1.5 0.9 2.4 2.3 2.4 1.5 0 3.2 0 4.6-0.2z"/>
							<path id="font_76_1" class="s2" d=""/>
							<path id="font_76_23" class="s2" d="m60.4 205.3l-1.1-1.6-2.9 2.6 0.6 1zm1.3 2.7h-2.3v7.5c0 2.4-0.4 3.2-1.7 3.2-1.3 0-1.8-0.8-1.8-3.2v-7.5h-2.2v7.5c0 3.7 1.1 5.1 4.1 5.1 2.8 0 3.9-1.4 3.9-5.1z"/>
							<path id="font_76_18" class="s2" d="m66.8 207.7c-2.6 0-3.6 0.5-3.6 3.4 0 1.8 0.5 3 2.1 3.6l1.9 0.8c0.6 0.2 1 0.5 1 1.6 0 1.3-0.3 1.5-1.5 1.5-0.6 0-1.2 0-3.3-0.1l-0.1 1.7c1.5 0.4 2.8 0.4 3.4 0.4 2.8 0 3.7-0.7 3.7-3.5 0-1.8-0.5-3-2.1-3.6l-1.9-0.7c-0.7-0.4-1-0.6-1-1.7 0-1.3 0.4-1.4 1.5-1.4 1 0 2.2 0 3.1 0l0.1-1.6c-1.1-0.3-2.3-0.4-3.3-0.4z"/>
							<path id="font_76_16" class="s2" d="m75.8 207.8c-1.8 0-2.6 0-3.8 0.1v12.5h2.3v-4.7q0.8 0.1 1.8 0.1c2.5 0 3.4-0.9 3.4-4 0-3.2-0.9-4-3.7-4zm-1.5 6.1v-4.3h1.5c1.1 0 1.4 0.5 1.4 2.2 0 1.7-0.3 2.1-1.4 2.1z"/>
							<path id="font_76_15" class="s2" d="m84.9 207.7c-3.2 0-4.3 1.5-4.3 6.5 0 4.9 1.1 6.4 4.3 6.4 3.2 0 4.3-1.5 4.3-6.4 0-5-1.1-6.5-4.3-6.5zm0 1.9c1.5 0 1.9 1.1 1.9 4.6 0 3.4-0.4 4.5-1.9 4.5-1.5 0-1.9-1.1-1.9-4.5 0-3.5 0.4-4.6 1.9-4.6z"/>
							<path id="font_76_17" class="s2" d="m98.8 220.4l-0.9-3.9c-0.2-1.2-0.9-1.7-1.4-1.9 1.4-0.3 1.9-1.3 1.9-3.2 0-2.8-1.1-3.6-3.7-3.6-1.8 0-2.6 0-3.8 0.1v12.5h2.2v-5h1.5c0.6 0 0.9 0.3 1.1 1.1l0.7 3.9zm-5.7-6.9v-3.9h1.6c1.1 0 1.5 0.4 1.5 2 0 1.5-0.4 1.9-1.5 1.9z"/>
							<path id="font_76_14" class="s2" d="m108.7 207.9h-2.1v7.9q0 1.1 0 2.2h-0.2l-0.5-2.1-2.1-7.3c-0.2-0.5-0.4-0.7-0.9-0.7h-1.9c-0.5 0-0.8 0.3-0.8 0.9v11.6h2.2v-8.2c0-0.6 0-1.3 0-1.9h0.1c0.2 0.6 0.4 1.4 0.6 1.9l2.1 7.5c0.1 0.5 0.4 0.7 0.9 0.7h1.8q0.8 0 0.8-0.8z"/>
							<path id="font_76_21" class="s2" d="m113.9 207.3l3.4-2-1.1-1.6-2.9 2.6zm2.2 9.6l0.8 3.5h2.3l-2.9-11.8c-0.1-0.4-0.4-0.6-0.8-0.6h-2.1c-0.4 0-0.7 0.2-0.8 0.6l-2.9 11.8h2.3l0.8-3.5zm-0.4-1.9h-2.6l0.9-4.3c0-0.3 0.1-0.7 0.2-1h0.4c0 0.3 0.1 0.7 0.2 1z"/>
						</g>
					</g>
				</g>
			</g>
		</g>
		<path class="s6" d="m289 249.9v-0.2h-288.1v53.2h287.8l0.1 0.1v-0.1h0.2v-0.2l22.4-26.4z"/>
		<path class="s1" d="m289 249.9v-0.2h-288.1v53.2h287.8l0.1 0.1v-0.1h0.2v-0.2l22.4-26.4z"/>
		<g id="Clip-Path" clip-path="url(#cp10)">
			<g>
				<g style="opacity: .9">
					<g id="Clip-Path" clip-path="url(#cp11)">
						<g>
							<path id="font_79_11" class="s2" d="m274.6 285.2c-1.3 0-1.8-0.5-1.8-2.1v-5.5h10.1v-3.4h-10.1v-4.3c0-1.6 0.5-2.1 1.8-2.1h9.6l0.2-3.5c-3.2-0.2-7.2-0.2-10.9-0.2-3.2 0-5.2 1.7-5.2 4.6v15.5c0 2.9 2 4.7 5.2 4.7 3.7 0 7.7 0 10.9-0.3l-0.2-3.4z"/>
						</g>
					</g>
				</g>
				<g style="opacity: .9">
					<g id="Clip-Path" clip-path="url(#cp12)">
						<g>
							<path id="font_81_14" class="s2" d="m18.6 270.2h-2.2v7.9q0 1.1 0 2.2h-0.1l-0.6-2.1-2.1-7.3c-0.1-0.5-0.4-0.7-0.9-0.7h-1.8c-0.5 0-0.8 0.3-0.8 0.8v11.7h2.2v-8.2c0-0.6-0.1-1.3-0.1-2h0.2c0.1 0.6 0.3 1.5 0.5 2l2.1 7.5c0.2 0.5 0.5 0.7 0.9 0.7h1.9q0.8 0 0.8-0.9z"/>
							<path id="font_81_9" class="s2" d="m27.3 280.8h-3.9c-0.4 0-0.6-0.2-0.6-1v-2.8h4v-1.7h-4v-2.2c0-0.8 0.2-1 0.6-1h3.9l0.1-1.8c-1.3-0.1-3-0.1-4.5-0.1-1.4 0-2.3 0.9-2.3 2.3v7.8c0 1.5 0.8 2.4 2.3 2.4 1.5 0 3.2 0 4.5-0.1z"/>
							<path id="font_81_10" class="s2" d="m37 270.2h-2.2v4.9h-3.5v-4.9h-2.3v12.5h2.3v-5.7h3.5v5.7h2.2z"/>
							<path id="font_81_15" class="s2" d="m43 270c-3.2 0-4.3 1.5-4.3 6.4 0 5 1.1 6.5 4.3 6.5 3.2 0 4.3-1.5 4.3-6.5 0-4.9-1.1-6.4-4.3-6.4zm0 1.9c1.5 0 1.9 1.1 1.9 4.5 0 3.5-0.4 4.6-1.9 4.6-1.5 0-1.9-1.1-1.9-4.6 0-3.4 0.4-4.5 1.9-4.5z"/>
							<path id="font_81_18" class="s2" d="m52.2 270c-2.5 0-3.6 0.5-3.6 3.3 0 1.9 0.6 3.1 2.1 3.6l2 0.8c0.6 0.3 0.9 0.5 0.9 1.7 0 1.3-0.3 1.5-1.4 1.5-0.6 0-1.3 0-3.3-0.1l-0.1 1.7c1.5 0.3 2.7 0.4 3.3 0.4 2.8 0 3.8-0.7 3.8-3.5 0-1.8-0.5-3-2.1-3.6l-1.9-0.8c-0.7-0.3-1-0.5-1-1.6 0-1.4 0.3-1.4 1.4-1.4 1 0 2.3 0 3.1 0l0.1-1.6c-1.1-0.3-2.3-0.4-3.3-0.4z"/>
							<path id="font_81_16" class="s2" d="m61.3 270.1c-1.8 0-2.6 0-3.8 0.1v12.5h2.2v-4.7q0.9 0.1 1.9 0.1c2.4 0 3.3-0.9 3.3-4 0-3.2-0.9-4-3.6-4zm-1.6 6.1v-4.3h1.5c1.1 0 1.5 0.5 1.5 2.2 0 1.7-0.4 2.1-1.5 2.1z"/>
							<path id="font_81_15" class="s2" d="m70.3 270c-3.1 0-4.3 1.5-4.3 6.4 0 5 1.2 6.5 4.3 6.5 3.2 0 4.3-1.5 4.3-6.5 0-4.9-1.1-6.4-4.3-6.4zm0 1.9c1.5 0 2 1.1 2 4.5 0 3.5-0.5 4.6-2 4.6-1.4 0-1.9-1.1-1.9-4.6 0-3.4 0.5-4.5 1.9-4.5z"/>
							<path id="font_81_8" class="s2" d="m80.2 270.1c-1.5 0-2.7 0-3.9 0.1v12.5c1.2 0.1 2.4 0.1 3.9 0.1 3.2 0 4.3-1.5 4.3-6.4 0-4.8-1.1-6.3-4.3-6.3zm0 10.8q-0.9 0-1.6 0v-8.9c0.5 0 1-0.1 1.6-0.1 1.5 0 1.9 1.1 1.9 4.5 0 3.5-0.4 4.5-1.9 4.5z"/>
							<path id="font_81_21" class="s2" d="m89.3 269.6l3.3-2-1.1-1.6-2.9 2.6zm2.3 9.6l0.7 3.5h2.3l-2.9-11.9c-0.1-0.3-0.4-0.6-0.8-0.6h-2.1c-0.3 0-0.7 0.3-0.8 0.6l-2.8 11.9h2.3l0.7-3.5zm-0.4-1.9h-2.6l0.9-4.3c0.1-0.3 0.2-0.7 0.2-1h0.4c0 0.3 0.2 0.7 0.2 1z"/>
							<path id="font_81_17" class="s2" d="m103.5 282.7l-0.9-3.9c-0.2-1.2-0.9-1.7-1.4-1.9v-0.1c1.4-0.2 1.9-1.2 1.9-3.1 0-2.8-1.1-3.6-3.7-3.6-1.8 0-2.6 0-3.8 0.1v12.5h2.2v-5h1.5c0.6 0 0.9 0.3 1.1 1.1l0.7 3.9zm-5.7-6.9v-3.9h1.6c1.1 0 1.5 0.4 1.5 2 0 1.5-0.4 1.9-1.5 1.9z"/>
							<path id="font_81_14" class="s2" d="m113.4 270.2h-2.1v7.9q0 1.1 0 2.2h-0.2l-0.5-2.1-2.1-7.3c-0.2-0.5-0.4-0.7-0.9-0.7h-1.9c-0.5 0-0.8 0.3-0.8 0.8v11.7h2.2v-8.2c0-0.6 0-1.3 0-2h0.1c0.2 0.6 0.4 1.5 0.6 2l2.1 7.5c0.1 0.5 0.4 0.7 0.9 0.7h1.9q0.7 0 0.7-0.9z"/>
							<path id="font_81_21" class="s2" d="m118.6 269.6l3.4-2-1.1-1.6-2.9 2.6zm2.2 9.6l0.8 3.5h2.3l-2.9-11.9c-0.1-0.3-0.4-0.6-0.8-0.6h-2.1c-0.4 0-0.7 0.3-0.8 0.6l-2.9 11.9h2.3l0.8-3.5zm-0.4-1.9h-2.6l0.9-4.3c0.1-0.3 0.1-0.7 0.2-1h0.4c0 0.3 0.1 0.7 0.2 1z"/>
						</g>
					</g>
				</g>
			</g>
		</g>
		<path class="s7" d="m311.7 312v-0.1h-310.8v53.3h310.7l0.1 0.1 22.6-26.7z"/>
		<path class="s1" d="m311.7 312v-0.1h-310.8v53.3h310.7l0.1 0.1 22.6-26.7z"/>
		<g id="Clip-Path" clip-path="url(#cp13)">
			<g>
				<g style="opacity: .9">
					<g id="Clip-Path" clip-path="url(#cp14)">
						<g>
							<path id="font_84_12" class="s2" d="m298.6 330.1h9l0.2-3.4c-3.1-0.4-7-0.4-10.5-0.4-3.2 0-5.3 1.8-5.3 4.9v19.9h4.5v-10.7h9.8v-3.5h-9.8v-4.8c0-1.5 0.6-2 2.1-2z"/>
						</g>
					</g>
				</g>
				<g style="opacity: .9">
					<g id="Clip-Path" clip-path="url(#cp15)">
						<g>
							<path id="font_86_19" class="s2" d="m18.2 332.5h-2.3l-1.8 9.4c-0.1 0.4-0.2 0.9-0.2 1.3h-0.4c-0.1-0.4-0.1-0.9-0.2-1.3l-1.8-9.4h-2.3l2.7 11.8c0.1 0.4 0.4 0.7 0.8 0.7h2c0.4 0 0.7-0.3 0.8-0.7z"/>
							<path id="font_86_9" class="s2" d="m26 343.1h-3.9c-0.4 0-0.6-0.2-0.6-1v-2.8h4v-1.7h-4v-2.2c0-0.8 0.2-1.1 0.6-1.1h3.9l0.1-1.7c-1.3-0.1-3-0.1-4.5-0.1-1.4 0-2.3 0.9-2.3 2.3v7.8c0 1.5 0.8 2.4 2.3 2.4 1.5 0 3.2 0 4.5-0.1z"/>
							<path id="font_86_12" class="s2" d="m29.9 332.5h-2.2v9.9c0 1.5 0.6 2.6 2.4 2.6 1.4 0 2.8 0 4.1-0.2l-0.1-1.7h-3.4c-0.6 0-0.8-0.3-0.8-1z"/>
							<path id="font_86_13" class="s2" d="m43.4 332.5q-0.7 0-0.9 0.8l-1.1 6.7c-0.1 0.6-0.2 1.1-0.3 1.7h-0.1c-0.1-0.6-0.2-1.1-0.3-1.7l-1.1-6.7q-0.2-0.8-0.9-0.8h-2.2q-0.8 0-0.9 0.9l-0.3 11.6h2.1l0.3-10.7h0.3l1.3 8.3c0.2 0.5 0.5 0.8 1 0.8h1.5q0.8 0 1-0.8l1.3-8.3h0.3l0.3 10.7h2.2l-0.4-11.6c0-0.6-0.3-0.9-0.9-0.9z"/>
							<path id="font_86_11" fill-rule="evenodd" class="s2" d="m51 332.5v12.5h-2.3v-12.5z"/>
							<path id="font_86_1" class="s2" d=""/>
							<path id="font_86_14" class="s2" d="m64.5 332.5h-2.2v7.9q0 1 0.1 2.1h-0.2l-0.6-2-2-7.3c-0.2-0.5-0.5-0.7-0.9-0.7h-1.9c-0.5 0-0.8 0.3-0.8 0.8v11.7h2.2v-8.2c0-0.6 0-1.3-0.1-2h0.2c0.2 0.6 0.4 1.4 0.5 2l2.2 7.5c0.1 0.5 0.4 0.7 0.9 0.7h1.8q0.8 0 0.8-0.9z"/>
							<path id="font_86_9" class="s2" d="m73.2 343.1h-3.8c-0.5 0-0.6-0.2-0.6-1v-2.8h3.9v-1.7h-3.9v-2.2c0-0.8 0.1-1.1 0.6-1.1h3.8l0.1-1.7c-1.3-0.1-3-0.1-4.5-0.1-1.4 0-2.3 0.9-2.3 2.3v7.8c0 1.5 0.9 2.4 2.3 2.4 1.5 0 3.2 0 4.5-0.1z"/>
							<path id="font_86_10" class="s2" d="m82.9 332.5h-2.2v4.9h-3.5v-4.9h-2.2v12.5h2.2v-5.7h3.5v5.7h2.2z"/>
							<path id="font_86_15" class="s2" d="m88.9 332.3c-3.1 0-4.2 1.5-4.2 6.4 0 5 1.1 6.5 4.2 6.5 3.2 0 4.3-1.5 4.3-6.5 0-4.9-1.1-6.4-4.3-6.4zm0 1.9c1.5 0 2 1.1 2 4.5 0 3.5-0.5 4.6-2 4.6-1.4 0-1.9-1.1-1.9-4.6 0-3.4 0.5-4.5 1.9-4.5z"/>
							<path id="font_86_18" class="s2" d="m98.2 332.3c-2.6 0-3.6 0.5-3.6 3.3 0 1.9 0.5 3 2 3.6l2 0.8c0.6 0.3 0.9 0.5 0.9 1.7 0 1.3-0.2 1.5-1.4 1.5-0.6 0-1.3 0-3.3-0.1l-0.1 1.7c1.5 0.3 2.8 0.4 3.4 0.4 2.7 0 3.7-0.7 3.7-3.5 0-1.8-0.5-3-2.1-3.6l-1.9-0.8c-0.7-0.3-1-0.5-1-1.6 0-1.4 0.4-1.4 1.4-1.4 1.1 0 2.3 0 3.1 0l0.2-1.6c-1.2-0.3-2.3-0.4-3.3-0.4z"/>
							<path id="font_86_16" class="s2" d="m107.2 332.4c-1.8 0-2.6 0-3.8 0.1v12.5h2.2v-4.7q0.9 0.1 1.9 0.1c2.5 0 3.3-0.9 3.3-4 0-3.2-0.8-4-3.6-4zm-1.6 6.1v-4.3h1.6c1.1 0 1.4 0.4 1.4 2.2 0 1.7-0.3 2.1-1.4 2.1z"/>
							<path id="font_86_15" class="s2" d="m116.3 332.3c-3.2 0-4.3 1.5-4.3 6.4 0 5 1.1 6.5 4.3 6.5 3.1 0 4.3-1.5 4.3-6.5 0-4.9-1.2-6.4-4.3-6.4zm0 1.9c1.5 0 1.9 1.1 1.9 4.5 0 3.5-0.4 4.6-1.9 4.6-1.5 0-2-1.1-2-4.6 0-3.4 0.5-4.5 2-4.5z"/>
							<path id="font_86_8" class="s2" d="m126.2 332.4c-1.6 0-2.8 0-3.9 0.1v12.5c1.1 0 2.4 0.1 3.9 0.1 3.1 0 4.2-1.5 4.2-6.4 0-4.8-1.1-6.3-4.2-6.3zm0 10.8q-0.9 0-1.7 0v-9c0.5 0 1 0 1.7 0 1.4 0 1.9 1.1 1.9 4.5 0 3.5-0.5 4.5-1.9 4.5z"/>
							<path id="font_86_21" class="s2" d="m135.2 331.9l3.3-2-1-1.6-3 2.6zm2.3 9.6l0.7 3.5h2.3l-2.9-11.9c0-0.3-0.4-0.6-0.7-0.6h-2.1c-0.4 0-0.7 0.3-0.8 0.6l-2.9 11.9h2.3l0.7-3.5zm-0.4-1.9h-2.6l0.9-4.3c0.1-0.3 0.2-0.7 0.2-1.1h0.4c0.1 0.4 0.2 0.8 0.2 1.1z"/>
							<path id="font_86_17" class="s2" d="m149.4 345l-0.8-3.9c-0.3-1.2-1-1.7-1.5-1.9v-0.1c1.4-0.2 1.9-1.2 1.9-3.1 0-2.8-1.1-3.6-3.7-3.6-1.8 0-2.6 0-3.8 0.1v12.5h2.2v-5h1.5c0.6 0 0.9 0.3 1.1 1.1l0.7 3.9zm-5.6-6.9v-3.9h1.5c1.1 0 1.5 0.4 1.5 1.9 0 1.6-0.4 2-1.5 2z"/>
							<path id="font_86_14" class="s2" d="m159.4 332.5h-2.2v7.9q0 1 0 2.1h-0.1l-0.6-2-2.1-7.3c-0.1-0.5-0.4-0.7-0.9-0.7h-1.8c-0.5 0-0.8 0.3-0.8 0.8v11.7h2.1v-8.2c0-0.6 0-1.3 0-2h0.2c0.1 0.6 0.3 1.4 0.5 2l2.1 7.5c0.2 0.5 0.5 0.7 0.9 0.7h1.9q0.8 0 0.8-0.9z"/>
							<path id="font_86_21" class="s2" d="m164.6 331.9l3.3-2-1.1-1.6-2.9 2.6zm2.3 9.6l0.7 3.5h2.3l-2.9-11.9c-0.1-0.3-0.4-0.6-0.8-0.6h-2.1c-0.3 0-0.7 0.3-0.8 0.6l-2.8 11.9h2.3l0.7-3.5zm-0.4-1.9h-2.6l0.9-4.3c0.1-0.3 0.2-0.7 0.2-1.1h0.4c0 0.4 0.1 0.8 0.2 1.1z"/>
						</g>
					</g>
				</g>
			</g>
		</g>
		<path class="s8" d="m334.4 374.2h-333.5v53.3h333.4 0.1l22.7-26.6z"/>
		<path class="s1" d="m334.4 374.2h-333.5v53.3h333.4 0.1l22.7-26.6z"/>
		<g id="Clip-Path" clip-path="url(#cp16)">
			<g>
				<g style="opacity: .9">
					<g id="Clip-Path" clip-path="url(#cp17)">
						<g>
							<path id="font_89_13" class="s2" d="m326.4 399.2v9.1c-1.5 0.9-3.1 1.7-5.2 1.7-3.3 0-4.4-2.2-4.4-8.8 0-8 1.6-9 6.3-9 1.7 0 4.2 0.1 6.5 0.2l0.4-3.3c-2.2-0.6-4.6-0.9-7.1-0.9-8 0-10.8 2.9-10.8 12.8 0 8.9 2.2 12.9 7.7 12.9 3.4 0 5.9-1.7 7.2-2.9l0.4 2.4h3.4v-14.2z"/>
						</g>
					</g>
				</g>
				<g style="opacity: .9">
					<g id="Clip-Path" clip-path="url(#cp18)">
						<g>
							<path id="font_91_13" class="s2" d="m18 394.8q-0.7 0-0.9 0.8l-1.1 6.7c-0.1 0.6-0.2 1.1-0.2 1.7h-0.2c-0.1-0.6-0.2-1.1-0.3-1.7l-1.1-6.7q-0.2-0.8-0.9-0.8h-2.2q-0.8 0-0.9 0.9l-0.3 11.5h2.1l0.3-10.6h0.3l1.4 8.3c0.1 0.5 0.4 0.8 0.9 0.8h1.6q0.7 0 0.9-0.8l1.3-8.3h0.3l0.3 10.6h2.2l-0.4-11.5c0-0.6-0.3-0.9-0.9-0.9z"/>
							<path id="font_91_11" fill-rule="evenodd" class="s2" d="m25.6 394.8v12.4h-2.3v-12.4z"/>
							<path id="font_91_13" class="s2" d="m35.6 394.8q-0.8 0-0.9 0.8l-1.2 6.7c-0.1 0.6-0.1 1.1-0.2 1.7h-0.2c-0.1-0.6-0.1-1.1-0.2-1.7l-1.2-6.7q-0.1-0.8-0.8-0.8h-2.3q-0.8 0-0.8 0.9l-0.4 11.5h2.2l0.2-10.6h0.3l1.4 8.3c0.1 0.5 0.4 0.8 0.9 0.8h1.6q0.8 0 0.9-0.8l1.4-8.3h0.3l0.3 10.6h2.1l-0.4-11.5c0-0.6-0.3-0.9-0.8-0.9z"/>
							<path id="font_91_15" class="s2" d="m44.8 394.6c-3.2 0-4.3 1.5-4.3 6.4 0 5 1.1 6.5 4.3 6.5 3.2 0 4.3-1.5 4.3-6.5 0-4.9-1.1-6.4-4.3-6.4zm0 1.9c1.5 0 2 1.1 2 4.5 0 3.5-0.5 4.5-2 4.5-1.5 0-1.9-1-1.9-4.5 0-3.4 0.4-4.5 1.9-4.5z"/>
							<path id="font_91_25" class="s2" d="m54.1 393.9h1l2.2-2.4-0.7-0.9-1.9 1.5h-0.2l-1.9-1.5-0.7 0.9zm4.6 13.4l-0.8-3.9c-0.3-1.2-1-1.7-1.5-1.8v-0.1c1.4-0.3 1.9-1.3 1.9-3.2 0-2.8-1.1-3.6-3.7-3.6-1.8 0-2.6 0-3.8 0.1v12.5h2.2v-5h1.5c0.6 0 0.9 0.3 1.1 1.1l0.7 3.9zm-5.6-6.8v-4h1.5c1.2 0 1.5 0.4 1.5 2 0 1.5-0.3 1.9-1.5 2z"/>
							<path id="font_91_21" class="s2" d="m63.3 394.2l3.3-2-1-1.6-2.9 2.6zm2.2 9.6l0.7 3.5h2.3l-2.8-11.9c-0.1-0.4-0.4-0.6-0.8-0.6h-2.1c-0.4 0-0.7 0.2-0.8 0.6l-2.9 11.9h2.3l0.7-3.5zm-0.4-1.9h-2.6l0.9-4.3c0.1-0.3 0.2-0.7 0.2-1.1h0.4c0.1 0.4 0.2 0.8 0.3 1.1z"/>
							<path id="font_91_8" class="s2" d="m73.5 394.6c-1.5 0-2.7 0.1-3.9 0.2v12.4c1.2 0.1 2.4 0.2 3.9 0.2 3.2 0 4.3-1.5 4.3-6.4 0-4.8-1.1-6.4-4.3-6.4zm0 10.9q-0.9 0-1.6 0v-9c0.5 0 1 0 1.6 0 1.5 0 1.9 1.1 1.9 4.5 0 3.5-0.4 4.5-1.9 4.5z"/>
							<path id="font_91_14" class="s2" d="m88 394.8h-2.1v7.9q0 1 0 2.1h-0.2l-0.5-2-2.1-7.3c-0.2-0.5-0.4-0.7-0.9-0.7h-1.9c-0.5 0-0.8 0.3-0.8 0.8v11.6h2.2v-8.1c0-0.6 0-1.3 0-2h0.1c0.2 0.6 0.4 1.4 0.6 2l2.1 7.5c0.1 0.5 0.4 0.6 0.9 0.6h1.9q0.7 0 0.7-0.8z"/>
							<path id="font_91_24" class="s2" d="m93.2 393.6h0.9l2.2-2.4-0.6-0.9-2 1.5h-0.1l-2-1.5-0.6 0.9zm3.6 11.9h-3.9c-0.5 0-0.6-0.3-0.6-1.1v-2.8h3.9v-1.7h-3.9v-2.2c0-0.8 0.1-1 0.6-1h3.9l0.1-1.8c-1.4-0.1-3.1-0.1-4.6-0.1-1.4 0-2.3 0.9-2.3 2.4v7.8c0 1.4 0.9 2.3 2.3 2.3 1.5 0 3.2 0 4.6-0.1z"/>
							<path id="font_91_1" class="s2" d=""/>
							<path id="font_91_14" class="s2" d="m110 394.8h-2.2v7.9q0 1 0.1 2.1h-0.2l-0.6-2-2.1-7.3c-0.1-0.5-0.4-0.7-0.9-0.7h-1.8c-0.5 0-0.8 0.3-0.8 0.8v11.6h2.2v-8.1c0-0.6 0-1.3-0.1-2h0.2c0.1 0.6 0.4 1.4 0.5 2l2.2 7.5c0.1 0.5 0.4 0.6 0.9 0.6h1.8q0.8 0 0.8-0.8z"/>
							<path id="font_91_9" class="s2" d="m118.7 405.4h-3.8c-0.5 0-0.7-0.2-0.7-1v-2.8h4v-1.7h-4v-2.2c0-0.8 0.2-1.1 0.7-1.1h3.8l0.1-1.7c-1.3-0.1-3-0.1-4.5-0.1-1.4 0-2.3 0.9-2.3 2.3v7.8c0 1.5 0.9 2.4 2.3 2.4 1.5 0 3.2 0 4.5-0.2z"/>
							<path id="font_91_10" class="s2" d="m128.4 394.8h-2.2v4.9h-3.5v-4.9h-2.2v12.4h2.2v-5.7h3.5v5.7h2.2z"/>
							<path id="font_91_15" class="s2" d="m134.4 394.6c-3.1 0-4.3 1.5-4.3 6.4 0 5 1.2 6.5 4.3 6.5 3.2 0 4.3-1.5 4.3-6.5 0-4.9-1.1-6.4-4.3-6.4zm0 1.9c1.5 0 2 1.1 2 4.5 0 3.5-0.5 4.5-2 4.5-1.4 0-1.9-1-1.9-4.5 0-3.4 0.5-4.5 1.9-4.5z"/>
							<path id="font_91_18" class="s2" d="m143.7 394.6c-2.6 0-3.7 0.5-3.7 3.3 0 1.9 0.6 3 2.1 3.6l2 0.8c0.6 0.3 0.9 0.5 0.9 1.7 0 1.2-0.2 1.5-1.4 1.5-0.6 0-1.3 0-3.3-0.1l-0.1 1.7c1.5 0.3 2.7 0.4 3.3 0.4 2.8 0 3.8-0.7 3.8-3.5 0-1.8-0.5-3-2.1-3.6l-1.9-0.8c-0.7-0.3-1-0.5-1-1.6 0-1.4 0.4-1.4 1.4-1.4 1.1 0 2.3 0 3.1 0l0.2-1.6c-1.2-0.3-2.4-0.4-3.3-0.4z"/>
							<path id="font_91_16" class="s2" d="m152.7 394.6c-1.8 0-2.6 0.1-3.8 0.2v12.4h2.2v-4.7q0.9 0.2 1.9 0.2c2.5 0 3.3-0.9 3.3-4.1 0-3.1-0.8-4-3.6-4zm-1.6 6.2v-4.3h1.5c1.1 0 1.5 0.4 1.5 2.1 0 1.8-0.4 2.2-1.5 2.2z"/>
							<path id="font_91_15" class="s2" d="m161.8 394.6c-3.2 0-4.3 1.5-4.3 6.4 0 5 1.1 6.5 4.3 6.5 3.1 0 4.2-1.5 4.2-6.5 0-4.9-1.1-6.4-4.2-6.4zm0 1.9c1.5 0 1.9 1.1 1.9 4.5 0 3.5-0.4 4.5-1.9 4.5-1.5 0-2-1-2-4.5 0-3.4 0.5-4.5 2-4.5z"/>
							<path id="font_91_8" class="s2" d="m171.7 394.6c-1.6 0-2.8 0.1-3.9 0.2v12.4c1.1 0.1 2.4 0.2 3.9 0.2 3.1 0 4.2-1.5 4.2-6.4 0-4.8-1.1-6.4-4.2-6.4zm0 10.9q-0.9 0-1.7 0v-9c0.5 0 1 0 1.7 0 1.4 0 1.9 1.1 1.9 4.5 0 3.5-0.5 4.5-1.9 4.5z"/>
							<path id="font_91_21" class="s2" d="m180.7 394.2l3.3-2-1-1.6-3 2.6zm2.3 9.6l0.7 3.5h2.3l-2.9-11.9c-0.1-0.4-0.4-0.6-0.7-0.6h-2.1c-0.4 0-0.7 0.2-0.8 0.6l-2.9 11.9h2.3l0.7-3.5zm-0.4-1.9h-2.6l0.9-4.3c0.1-0.3 0.2-0.7 0.2-1.1h0.4c0.1 0.4 0.2 0.8 0.2 1.1z"/>
							<path id="font_91_17" class="s2" d="m194.9 407.2l-0.9-3.8c-0.2-1.2-0.9-1.7-1.4-1.9v-0.1c1.4-0.2 1.9-1.3 1.9-3.1 0-2.8-1.1-3.7-3.7-3.7-1.8 0-2.6 0.1-3.8 0.2v12.4h2.2v-4.9h1.5c0.6 0 0.9 0.3 1.1 1.1l0.7 3.8zm-5.6-6.8v-3.9h1.5c1.1 0 1.5 0.4 1.5 1.9 0 1.6-0.4 2-1.5 2z"/>
							<path id="font_91_14" class="s2" d="m204.9 394.8h-2.2v7.9q0 1 0 2.1h-0.1l-0.6-2-2.1-7.3c-0.1-0.5-0.4-0.7-0.9-0.7h-1.8c-0.6 0-0.8 0.3-0.8 0.8v11.6h2.1v-8.1c0-0.6 0-1.3 0-2h0.1c0.2 0.6 0.4 1.4 0.6 2l2.1 7.5c0.2 0.5 0.4 0.6 0.9 0.6h1.9q0.8 0 0.8-0.8z"/>
							<path id="font_91_21" class="s2" d="m210.1 394.2l3.3-2-1.1-1.6-2.9 2.6zm2.3 9.6l0.7 3.5h2.3l-2.9-11.9c-0.1-0.4-0.4-0.6-0.8-0.6h-2.1c-0.4 0-0.7 0.2-0.8 0.6l-2.8 11.9h2.3l0.7-3.5zm-0.4-1.9h-2.6l0.9-4.3c0.1-0.3 0.2-0.7 0.2-1.1h0.4c0 0.4 0.1 0.8 0.2 1.1z"/>
						</g>
					</g>
				</g>
			</g>
		</g>
		<path fill-rule="evenodd" class="s9" d="m0.7 120.7h434.3"/>
		<path fill-rule="evenodd" class="s10" d="m0.7 307.5h434.3"/>
		<g id="Clip-Path" clip-path="url(#cp19)">
			<g>
				<g style="opacity: .9">
					<g id="Clip-Path" clip-path="url(#cp20)">
						<g>
							<path id="font_94_7" class="s2" d="m363.8 20.7c-2 0-2.9 0.3-2.9 2.9 0 1.7 0.4 2.7 1.7 3.1l1.8 0.5c0.7 0.3 1 0.6 1 1.9 0 1.5-0.3 1.7-1.6 1.7-0.6 0.1-1 0-2.7 0l-0.1 1c1.2 0.3 2.2 0.3 2.8 0.3 2.2 0 3.1-0.5 3.1-3 0-1.7-0.4-2.7-1.8-3.1l-1.8-0.6c-0.7-0.2-1-0.6-1-1.8 0-1.6 0.4-1.7 1.6-1.7 0.8 0 1.8 0.1 2.6 0.1l0.1-1c-1-0.3-1.9-0.3-2.8-0.3z"/>
							<path id="font_94_21" class="s2" d="m370 25.2h2v-1.1h-2v-2.3h-1.3v2.3l-1.2 0.1v1h1.2v4.7c0 1.4 0.6 2.2 1.7 2.2 0.3 0 1.1-0.1 1.5-0.2l-0.2-1.1h-0.9c-0.5 0-0.8-0.3-0.8-1z"/>
							<path id="font_94_8" class="s2" d="m376.1 23.9c-0.8 0-2.2 0.2-3 0.4l0.1 1c1-0.1 2-0.2 2.6-0.2 1 0 1.2 0.4 1.3 1.3v0.7h-2.5c-1.2 0-1.8 0.7-1.8 1.9v0.9c0 1.4 0.8 2.2 1.9 2.2 1.2 0 2-0.8 2.5-1.4l0.2 1.2h1v-5.5c0-1.9-0.8-2.5-2.3-2.5zm-1.1 7c-0.6 0-0.9-0.4-0.9-1.2v-0.5c0-0.6 0.2-1 0.8-1l2.2-0.1v1.7c-0.8 0.8-1.6 1.1-2.1 1.1z"/>
							<path id="font_94_23" class="s2" d="m385.9 24.1h-1.4l-1.4 5.5-0.4 1.3h-0.2c-0.1-0.4-0.2-0.9-0.3-1.3l-1.4-5.5h-1.5l2.3 7.5c0 0.2 0.2 0.3 0.4 0.3h1.2q0.4 0 0.5-0.3z"/>
							<path id="font_94_9" class="s2" d="m390.5 23.9c-0.9 0-1.7 0.5-2.4 1.4 0.1-0.5 0.1-1 0.1-1.7v-2.9h-1.3v10.8c0.8 0.4 2.1 0.6 3 0.6 2.2 0 2.9-1.4 2.9-4.1 0-2.9-0.8-4.1-2.3-4.1zm-0.6 7.1c-0.5 0-1.1-0.1-1.7-0.3v-4.5c0.7-0.7 1.2-1.1 1.8-1.1 1.1 0 1.3 0.7 1.3 2.9 0 2.2-0.4 2.9-1.4 3z"/>
							<path id="font_94_24" class="s2" d="m399.9 24.1h-1.5l-1.4 5.8c-0.1 0.3-0.2 0.7-0.3 1h-0.2q-0.1-0.5-0.2-1l-1.5-5.8h-1.5l2.2 7.5c0.1 0.2 0.3 0.3 0.5 0.3h0.3l-0.1 0.4c-0.3 0.9-0.8 1.6-1.8 2l0.1 0.9c1.7-0.1 2.6-1.5 3-2.8z"/>
							<path id="font_94_1" class="s2" d=""/>
							<path id="font_94_18" class="s2" d="m407.1 23.9c-0.9 0-2 0.6-2.6 1.4l-0.2-1.2h-1.1v11h1.4v-2.2c0-0.6 0-1.1-0.1-1.6 0.7 0.5 1.5 0.8 2.3 0.8 1.6 0 2.4-1 2.4-4 0-2.8-0.6-4.2-2.1-4.2zm-0.7 7c-0.6 0-1.1-0.2-1.8-0.4v-4.2c0.8-0.8 1.4-1.2 2-1.2 0.9 0 1.2 0.7 1.2 3 0 2.2-0.4 2.8-1.4 2.8z"/>
							<path id="font_94_17" class="s2" d="m413.4 23.9c-2.2 0-3 1.1-3 4.1 0 3 0.8 4.1 3 4.1 2.2 0 3.1-1.1 3.1-4.1 0-3-0.9-4.1-3.1-4.1zm0 1.2c1.3 0 1.7 0.6 1.7 2.9 0 2.3-0.4 3-1.7 3-1.2 0-1.6-0.7-1.6-3 0-2.3 0.4-2.9 1.6-2.9z"/>
							<path id="font_94_11" class="s2" d="m423.5 20.7h-1.4v2.4c0 0.5 0 1 0.1 1.5-0.7-0.5-1.4-0.7-2.2-0.7-1.6 0-2.4 1-2.4 4.1 0 2.7 0.6 4.1 2.2 4.1 1 0 1.9-0.6 2.5-1.3l0.1 1.1h1.1zm-3.2 10.2c-0.9 0-1.3-0.6-1.3-2.9 0-2.3 0.4-2.9 1.4-2.9 0.6 0 1.1 0.2 1.7 0.4v4.4c-0.8 0.7-1.1 1-1.8 1z"/>
							<path id="font_94_15" class="s2" d="m426.5 20.7h-1.3v9.4c0 1.3 0.6 2 1.6 2 0.3 0 1-0.1 1.3-0.2l-0.2-1.1h-0.6q-0.7 0-0.8-1z"/>
							<path id="font_94_12" class="s2" d="m431.9 31c-1.2 0-1.7-0.5-1.8-2.3h2.8c1 0 1.5-0.8 1.5-2.2 0-1.7-0.8-2.6-2.8-2.6-2 0-2.9 1-2.9 4.1 0 3 0.8 4.1 3.1 4.1 0.7 0 1.8-0.1 2.5-0.4l-0.1-0.9c-0.7 0.1-1.6 0.2-2.3 0.2zm-0.2-5.9c1 0 1.4 0.4 1.4 1.4 0 0.5-0.1 1.1-0.6 1.1h-2.4c0-2 0.4-2.5 1.6-2.5z"/>
							<path id="font_94_1" class="s2" d=""/>
							<path id="font_94_1" class="s2" d=""/>
							<path id="font_94_23" class="s2" d="m307 44.1h-1.4l-1.5 5.5-0.3 1.4h-0.2c-0.1-0.5-0.2-0.9-0.3-1.4l-1.4-5.5h-1.5l2.2 7.5c0.1 0.2 0.3 0.4 0.5 0.4h1.2q0.3-0.1 0.5-0.4z"/>
							<path id="font_94_24" class="s2" d="m313.8 44.1h-1.5l-1.5 5.9c0 0.2-0.1 0.6-0.2 0.9h-0.2q-0.1-0.5-0.2-0.9l-1.5-5.9h-1.5l2.2 7.5c0.1 0.2 0.3 0.4 0.5 0.4h0.3l-0.1 0.3c-0.3 1-0.8 1.7-1.9 2.1l0.2 0.9c1.7-0.1 2.6-1.5 3-2.9z"/>
							<path id="font_94_13" class="s2" d="m318.8 44c-1 0-1.9 0.5-2.8 1.3 0.1-0.4 0.1-0.9 0.1-1.5v-3.1h-1.3v11.3h1.3v-5.7c1-0.8 1.6-1.2 2.3-1.2 0.5 0 0.7 0.3 0.7 1.4v5.5h1.4v-5.9c0-1.4-0.6-2.1-1.7-2.1z"/>
							<path id="font_94_15" class="s2" d="m323.5 40.7h-1.3v9.4c0 1.3 0.6 2 1.6 2 0.3 0 1-0.1 1.2-0.2l-0.1-1.1h-0.6q-0.8 0-0.8-1z"/>
							<path id="font_94_25" class="s2" d="m328 43.2l2.7-2-0.8-1-2.3 2.3zm0.9 0.8c-0.8 0-2.1 0.2-3 0.4l0.1 1c1-0.1 2.1-0.2 2.6-0.2 1 0 1.3 0.4 1.3 1.3v0.7h-2.5c-1.2 0-1.8 0.7-1.8 1.9v0.9c0 1.4 0.8 2.2 1.9 2.2 1.2 0 2-0.8 2.5-1.4l0.2 1.2h1v-5.5c0-1.9-0.7-2.5-2.3-2.5zm-1.1 7c-0.6 0-0.8-0.4-0.8-1.2v-0.5c0-0.6 0.1-1 0.7-1l2.2-0.1v1.7c-0.7 0.8-1.5 1.1-2.1 1.1z"/>
							<path id="font_94_27" class="s2" d="m337.7 40.9l-0.5-0.6-1.7 1.4h-0.1l-1.7-1.4-0.4 0.6 1.9 2h0.6zm-2.6 3.1c-1.7 0-2.5 0.3-2.5 2.2 0 1.2 0.4 1.8 1.5 2.1l1.7 0.5c0.6 0.2 0.9 0.4 0.9 1.1 0 1-0.4 1.1-1.7 1.1-0.8 0-1.6 0-2.2 0l-0.1 0.9c1.1 0.3 2.2 0.3 2.6 0.3 1.9 0 2.8-0.3 2.8-2.3 0-1.3-0.5-1.8-1.5-2.1l-1.8-0.5c-0.6-0.2-0.9-0.3-0.9-1.1 0-1 0.3-1.1 1.5-1 0.8 0 1.6 0 2.4 0l0.1-1c-0.8-0.1-1.9-0.2-2.8-0.2z"/>
							<path id="font_94_14" class="s2" d="m341.4 48l2.1 4h1.5l-2-3.8c-0.2-0.2-0.4-0.5-0.5-0.6v-0.1c0.1-0.1 0.3-0.3 0.5-0.5l1.8-2.9h-1.5l-1.9 2.9h-0.7c0-0.4 0.1-0.8 0.1-1.3l-0.1-5h-1.3v11.3h1.3v-2.7q0-0.6 0-1.3z"/>
							<path id="font_94_24" class="s2" d="m351.8 44.1h-1.5l-1.5 5.9c0 0.2-0.1 0.6-0.2 0.9h-0.2q-0.1-0.5-0.2-0.9l-1.5-5.9h-1.5l2.2 7.5c0.1 0.2 0.3 0.4 0.5 0.4h0.3l-0.1 0.3c-0.3 1-0.8 1.7-1.9 2.1l0.2 0.9c1.7-0.1 2.6-1.5 3-2.9z"/>
							<path id="font_94_1" class="s2" d=""/>
							<path id="font_95_5" class="s2" d="m357.8 40.7c-0.9 0-1.7 0.1-2.9 0.4v1.5c1.2-0.1 1.8-0.2 2.7-0.2 0.8 0 1.2 0.1 1.2 1 0 0.9-0.5 1.9-1.6 3.3l-2.1 3.2c-0.2 0.3-0.3 0.5-0.3 0.9v1.2h6.3v-1.9h-2.6c-0.4 0-0.9 0-1.4 0.1l2.3-3.2c1.2-1.6 1.4-2.5 1.4-3.8 0-2.1-1.2-2.5-3-2.5z"/>
							<path id="font_95_7" class="s2" d="m366 44.7c-0.8 0-1.4 0.2-1.9 0.7 0.1-2.6 0.5-3.1 1.8-3.1 0.9 0 1.3 0 2 0.1l0.1-1.4c-0.9-0.3-1.7-0.3-2.1-0.3-2.5 0-3.8 0.8-3.8 5.8 0 4.4 0.7 5.6 3.4 5.6 2.5 0 3.1-1.5 3.1-3.9 0-2.5-0.6-3.5-2.6-3.5zm-0.5 5.8c-1.3 0-1.4-0.7-1.4-3.7 0.5-0.4 0.9-0.6 1.4-0.6 0.9 0 1.2 0.6 1.2 2.1 0 1.4-0.1 2.2-1.2 2.2z"/>
							<path id="font_95_6" class="s2" d="m376.8 47.9h-1.2v-4.9h-1.5l-0.3 1.8v3.1h-2.1c-0.2 0-0.4-0.2-0.2-0.6l2-6.4h-1.9l-2.2 6.7c-0.3 0.9 0.1 1.8 1 1.8h3.4v2.6h1.8v-2.6h0.1l1.1-0.2z"/>
							<path id="font_95_3" class="s2" d="m378.5 53.1l5.1-12.2h-1.6l-5.1 12.2z"/>
							<path id="font_95_5" class="s2" d="m387.3 40.7c-0.9 0-1.7 0.1-3 0.4l0.1 1.5c1.2-0.1 1.8-0.2 2.7-0.2 0.8 0 1.2 0.1 1.2 1 0 0.9-0.6 1.9-1.6 3.3l-2.2 3.2c-0.2 0.3-0.2 0.5-0.2 0.9v1.2h6.2v-1.9h-2.5c-0.5 0-1 0-1.4 0.1l2.2-3.2c1.2-1.6 1.5-2.5 1.5-3.8 0-2.1-1.2-2.5-3-2.5z"/>
							<path id="font_95_4" class="s2" d="m395 40.7c-2.5 0-3.4 1.6-3.4 5.7 0 4.2 0.9 5.8 3.4 5.8 2.6 0 3.5-1.6 3.5-5.8 0-4.1-0.9-5.7-3.5-5.7zm0 1.7c1.2 0 1.5 0.9 1.5 4 0 3.1-0.3 4.1-1.5 4.1-1.1 0-1.4-1-1.4-4.1 0-3.1 0.3-4 1.4-4z"/>
							<path id="font_95_5" class="s2" d="m402.6 40.7c-0.9 0-1.7 0.1-3 0.4l0.1 1.5c1.2-0.1 1.8-0.2 2.7-0.2 0.8 0 1.2 0.1 1.2 1 0 0.9-0.6 1.9-1.6 3.3l-2.2 3.2c-0.1 0.3-0.2 0.5-0.2 0.9v1.2h6.3v-1.9h-2.6c-0.5 0-1 0-1.4 0.1l2.3-3.2c1.1-1.6 1.4-2.5 1.4-3.8 0-2.1-1.2-2.5-3-2.5z"/>
							<path id="font_95_4" class="s2" d="m410.3 40.7c-2.5 0-3.4 1.6-3.4 5.7 0 4.2 0.9 5.8 3.4 5.8 2.6 0 3.5-1.6 3.5-5.8 0-4.1-0.9-5.7-3.5-5.7zm0 1.7c1.2 0 1.5 0.9 1.5 4 0 3.1-0.3 4.1-1.5 4.1-1.1 0-1.4-1-1.4-4.1 0-3.1 0.3-4 1.4-4z"/>
							<path id="font_95_1" class="s2" d=""/>
							<path id="font_95_18" class="s2" d="m420.7 40.7c-2.3 0-3.2 0.4-3.2 3 0 1.6 0.5 2.6 1.8 3.2l1.8 0.7c0.5 0.2 0.8 0.4 0.8 1.4 0 1.2-0.2 1.4-1.3 1.4-0.5 0-1.1 0-2.9-0.1l-0.1 1.5c1.3 0.3 2.5 0.3 3 0.3 2.5 0 3.3-0.5 3.3-3.1 0-1.6-0.4-2.6-1.8-3.2l-1.7-0.6c-0.6-0.3-0.9-0.5-0.9-1.5 0-1.2 0.3-1.3 1.3-1.3 0.9 0 2 0.1 2.7 0.1l0.1-1.4c-1-0.3-2-0.4-2.9-0.4z"/>
							<path id="font_95_20" class="s2" d="m429.1 43.9c-0.9 0-1.7 0.4-2.3 1.2 0.2-0.5 0.2-1.1 0.2-1.7v-2.7h-1.9v10.8c0.7 0.4 2.3 0.6 3.2 0.6 2.6 0 3.1-1.6 3.1-4.1 0-3-0.7-4.1-2.3-4.1zm-0.8 6.7c-0.4 0-0.9 0-1.3-0.2v-4.1c0.4-0.5 0.8-0.8 1.3-0.8 1 0 1.1 0.6 1.1 2.5 0 2-0.3 2.6-1.1 2.6z"/>
							<path id="font_95_2" class="s2" d="m433.1 49.8c-0.5 0-0.7 0.1-0.7 0.6v0.9c0 0.5 0.2 0.7 0.7 0.7h0.6c0.5 0 0.7-0.2 0.7-0.7v-0.9c0-0.5-0.2-0.6-0.7-0.6z"/>
							<path id="font_95_1" class="s2" d=""/>
							<path id="font_94_2" class="s2" d="m321.1 59.3c-2.4 1.1-3.5 3.5-3.5 7.7 0 4.1 1.1 6.5 3.5 7.6l0.2-0.6c-1.7-1.1-2.4-3.5-2.4-7 0-3.7 0.7-6 2.4-7z"/>
							<path id="font_94_20" class="s2" d="m323.9 64c-1.8 0-2.5 0.3-2.5 2.1 0 1.3 0.4 1.9 1.4 2.2l1.7 0.5c0.6 0.2 1 0.3 1 1.1 0 0.9-0.4 1.1-1.8 1.1-0.8 0-1.6 0-2.1-0.1l-0.1 1c1.1 0.2 2.1 0.3 2.5 0.3 1.9 0 2.8-0.4 2.8-2.3 0-1.3-0.5-1.8-1.5-2.1l-1.7-0.5c-0.6-0.2-0.9-0.3-0.9-1.2 0-0.9 0.3-1 1.4-1 0.8 0 1.6 0.1 2.4 0.1l0.1-1c-0.8-0.1-1.9-0.2-2.7-0.2z"/>
							<path id="font_94_17" class="s2" d="m330.9 64c-2.2 0-3 1.1-3 4.1 0 3 0.8 4.1 3 4.1 2.2 0 3.1-1.1 3.1-4.1 0-3-0.9-4.1-3.1-4.1zm0 1.1c1.3 0 1.7 0.7 1.7 3 0 2.3-0.4 2.9-1.7 2.9-1.2 0-1.6-0.6-1.6-2.9 0-2.3 0.4-3 1.6-3z"/>
							<path id="font_94_22" class="s2" d="m340.9 64.2h-1.3v5.7c-0.9 0.7-1.4 1.1-2.1 1.1-0.6 0-0.8-0.3-0.8-1.3v-5.5h-1.4v5.8c0 1.5 0.6 2.2 1.8 2.2 0.9 0 1.7-0.4 2.6-1.3l0.1 1.1h1.1z"/>
							<path id="font_94_29" class="s2" d="m347.3 60.9l-0.4-0.6-1.7 1.4h-0.1l-1.7-1.4-0.4 0.6 1.8 2.1h0.7zm-2 3c-2.2 0-3 1.1-3 4.1 0 3 0.8 4.1 3 4.1 0.8 0 1.6-0.1 2.2-0.4l-0.1-0.9c-0.7 0.1-1.5 0.2-1.9 0.2-1.3 0-1.8-0.7-1.8-3 0-2.2 0.5-2.9 1.8-2.9 0.5 0 1.2 0 1.8 0.1l0.1-0.9c-0.6-0.3-1.5-0.4-2.1-0.4z"/>
							<path id="font_94_8" class="s2" d="m351.9 64c-0.9 0-2.2 0.2-3.1 0.3l0.1 1.1c1-0.2 2.1-0.3 2.7-0.3 0.9 0 1.2 0.4 1.2 1.4v0.7h-2.5c-1.1 0-1.8 0.7-1.8 1.9v0.9c0 1.4 0.8 2.1 2 2.1 1.1 0 2-0.7 2.4-1.3l0.2 1.2h1.1v-5.5c0-1.9-0.8-2.5-2.3-2.5zm-1.2 7c-0.6 0-0.8-0.4-0.8-1.2v-0.5c0-0.7 0.1-1 0.7-1.1h2.2v1.7c-0.7 0.7-1.5 1.1-2.1 1.1z"/>
							<path id="font_94_20" class="s2" d="m358 64c-1.8 0-2.5 0.3-2.5 2.1 0 1.3 0.4 1.9 1.4 2.2l1.8 0.5c0.5 0.2 0.9 0.3 0.9 1.1 0 0.9-0.4 1.1-1.8 1.1-0.8 0-1.6 0-2.1-0.1l-0.1 1c1.1 0.2 2.1 0.3 2.5 0.3 2 0 2.8-0.4 2.8-2.3 0-1.3-0.4-1.8-1.5-2.1l-1.7-0.5c-0.6-0.2-0.9-0.3-0.9-1.2 0-0.9 0.3-1 1.4-1 0.8 0 1.6 0.1 2.4 0.1l0.1-1c-0.8-0.1-1.9-0.2-2.7-0.2z"/>
							<path id="font_94_16" class="s2" d="m366.3 64c-0.9 0-1.8 0.5-2.8 1.4l-0.1-1.2h-1.1v7.8h1.4l-0.1-5.7c1-0.7 1.6-1.2 2.3-1.2 0.6 0 0.7 0.4 0.7 1.4v5.5h1.4v-5.9c0-1.4-0.6-2.1-1.7-2.1z"/>
							<path id="font_94_25" class="s2" d="m371.8 63.2l2.6-1.9-0.7-1.1-2.4 2.4zm1 0.8c-0.8 0-2.2 0.1-3.1 0.3l0.1 1c1-0.1 2.1-0.2 2.7-0.2 0.9 0 1.2 0.4 1.2 1.4v0.7h-2.4c-1.2 0-1.9 0.7-1.9 1.9v0.8c0 1.4 0.8 2.2 2 2.2 1.1 0 2-0.7 2.5-1.3l0.1 1.2h1.1v-5.5c0-1.9-0.8-2.5-2.3-2.5zm-1.1 6.9c-0.6 0-0.9-0.3-0.9-1.1v-0.5c0-0.7 0.1-1.1 0.7-1.1h2.2v1.6c-0.7 0.8-1.5 1.2-2 1.1z"/>
							<path id="font_94_1" class="s2" d=""/>
							<path id="font_94_23" class="s2" d="m384.9 64.2h-1.5l-1.4 5.4-0.3 1.4h-0.2c-0.1-0.4-0.2-0.9-0.4-1.4l-1.4-5.4h-1.4l2.2 7.5c0.1 0.2 0.3 0.3 0.5 0.3h1.2q0.3 0 0.4-0.3z"/>
							<path id="font_94_28" class="s2" d="m387.9 63.2l2.7-1.9-0.8-1.1-2.3 2.4zm3.7 1h-1.5l-1.4 5.8c-0.1 0.2-0.2 0.6-0.3 0.9h-0.2q-0.1-0.5-0.2-0.9l-1.5-5.8h-1.4l2.2 7.4c0 0.2 0.2 0.4 0.4 0.4h0.3l-0.1 0.3c-0.3 1-0.8 1.7-1.8 2.1l0.1 0.9c1.7-0.1 2.6-1.5 3-2.9z"/>
							<path id="font_94_20" class="s2" d="m394.8 64c-1.8 0-2.5 0.3-2.5 2.1 0 1.3 0.4 1.9 1.4 2.2l1.8 0.5c0.5 0.2 0.9 0.3 0.9 1.1 0 0.9-0.4 1.1-1.7 1.1-0.9 0-1.7 0-2.2-0.1l-0.1 1c1.1 0.2 2.1 0.3 2.5 0.3 2 0 2.8-0.4 2.8-2.3 0-1.3-0.4-1.8-1.5-2.1l-1.7-0.5c-0.6-0.2-0.9-0.3-0.9-1.2 0-0.9 0.3-1 1.4-1 0.8 0 1.6 0.1 2.4 0.1l0.1-1c-0.8-0.1-1.9-0.2-2.7-0.2z"/>
							<path id="font_94_21" class="s2" d="m400.9 65.3h2v-1.1h-2v-2.3h-1.3v2.3l-1.2 0.1v1h1.2v4.7c0 1.4 0.6 2.1 1.7 2.1 0.3 0 1.1 0 1.5-0.2l-0.2-1h-0.8c-0.6 0-0.9-0.3-0.9-1.1z"/>
							<path id="font_94_8" class="s2" d="m407 64c-0.8 0-2.2 0.2-3 0.3l0.1 1.1c1-0.2 2-0.3 2.6-0.3 1 0 1.3 0.4 1.3 1.4v0.7h-2.5c-1.2 0-1.8 0.7-1.8 1.9v0.9c0 1.4 0.8 2.1 1.9 2.1 1.2 0 2-0.7 2.5-1.3l0.2 1.2h1v-5.5c0-1.9-0.8-2.5-2.3-2.5zm-1.1 7c-0.6 0-0.8-0.4-0.8-1.2v-0.5c0-0.7 0.1-1 0.7-1.1h2.2v1.7c-0.8 0.7-1.6 1.1-2.1 1.1z"/>
							<path id="font_94_23" class="s2" d="m416.8 64.2h-1.4l-1.4 5.4-0.4 1.4h-0.2c-0.1-0.4-0.2-0.9-0.3-1.4l-1.4-5.4h-1.5l2.3 7.5c0 0.2 0.2 0.3 0.4 0.3h1.2q0.4 0 0.5-0.3z"/>
							<path id="font_94_9" class="s2" d="m421.4 64c-0.9 0-1.7 0.5-2.4 1.4 0.1-0.6 0.1-1.1 0.1-1.7v-2.9h-1.3v10.8c0.8 0.4 2.1 0.6 3 0.6 2.3 0 2.9-1.5 2.9-4.1 0-3-0.8-4.1-2.3-4.1zm-0.6 7c-0.5 0-1.1 0-1.7-0.2v-4.5c0.7-0.7 1.2-1.1 1.8-1.1 1.1 0 1.3 0.7 1.3 2.9 0 2.2-0.4 2.9-1.4 2.9z"/>
							<path id="font_94_8" class="s2" d="m428.1 64c-0.8 0-2.2 0.2-3.1 0.3l0.2 1.1c0.9-0.2 2-0.3 2.6-0.3 1 0 1.2 0.4 1.2 1.4v0.7h-2.4c-1.2 0-1.8 0.7-1.8 1.9v0.9c0 1.4 0.8 2.1 1.9 2.1 1.1 0 2-0.7 2.5-1.3l0.1 1.2h1.1v-5.5c0-1.9-0.8-2.5-2.3-2.5zm-1.1 7c-0.6 0-0.9-0.4-0.9-1.2v-0.5c0-0.7 0.2-1 0.7-1.1h2.2v1.7c-0.7 0.7-1.5 1.1-2 1.1z"/>
							<path id="font_94_3" class="s2" d="m430.7 60c1.7 1 2.4 3.3 2.4 7 0 3.5-0.7 5.9-2.4 7l0.2 0.6c2.4-1.1 3.5-3.5 3.5-7.6 0-4.2-1.1-6.6-3.5-7.7z"/>
						</g>
					</g>
				</g>
				<g style="opacity: .9">
					<g id="Clip-Path" clip-path="url(#cp21)">
						<g>
							<path id="font_97_7" class="s2" d="m350.9 165.3c-2 0-3 0.3-3 2.9 0 1.7 0.5 2.7 1.8 3.1l1.8 0.6c0.7 0.2 1 0.5 1 1.8 0 1.5-0.3 1.8-1.6 1.8-0.6 0-1.1-0.1-2.7-0.1l-0.1 1c1.2 0.3 2.2 0.3 2.8 0.3 2.2 0 3.1-0.4 3.1-3 0-1.7-0.5-2.7-1.9-3.1l-1.7-0.6c-0.7-0.2-1-0.6-1-1.8 0-1.6 0.4-1.7 1.6-1.7 0.8 0 1.8 0.1 2.5 0.1l0.1-1c-0.9-0.2-1.9-0.3-2.7-0.3z"/>
							<path id="font_97_21" class="s2" d="m357.1 169.8h2v-1.1h-2v-2.3h-1.3v2.3l-1.2 0.1v1h1.2v4.8c0 1.3 0.6 2.1 1.6 2.1 0.4 0 1.2-0.1 1.6-0.2l-0.2-1.1h-0.9c-0.6 0-0.8-0.3-0.8-1z"/>
							<path id="font_97_8" class="s2" d="m363.2 168.5c-0.8 0-2.2 0.2-3.1 0.4l0.2 1c0.9-0.1 2-0.2 2.6-0.2 1 0 1.2 0.4 1.2 1.3v0.7h-2.4c-1.2 0-1.8 0.7-1.8 2v0.8c0 1.4 0.8 2.2 1.9 2.2 1.1 0 2-0.8 2.5-1.4l0.1 1.2h1.1v-5.5c0-1.9-0.8-2.5-2.3-2.5zm-1.1 7c-0.6 0-0.9-0.3-0.9-1.2v-0.5c0-0.6 0.2-1 0.7-1h2.2v1.6c-0.7 0.8-1.5 1.1-2 1.1z"/>
							<path id="font_97_23" class="s2" d="m373 168.7h-1.4l-1.5 5.5-0.3 1.4h-0.2c-0.1-0.5-0.2-1-0.3-1.4l-1.4-5.5h-1.5l2.3 7.5c0 0.2 0.2 0.3 0.4 0.3h1.2q0.3 0 0.5-0.3z"/>
							<path id="font_97_9" class="s2" d="m377.5 168.5c-0.8 0-1.6 0.5-2.3 1.4 0.1-0.5 0.1-1 0.1-1.7v-2.9h-1.3v10.9c0.8 0.3 2.1 0.5 3 0.5 2.2 0 2.8-1.4 2.8-4.1 0-2.9-0.7-4.1-2.3-4.1zm-0.6 7.1c-0.4 0-1-0.1-1.6-0.3v-4.5c0.7-0.7 1.1-1.1 1.8-1.1 1.1 0 1.3 0.8 1.3 2.9 0 2.2-0.4 3-1.5 3z"/>
							<path id="font_97_24" class="s2" d="m387 168.7h-1.5l-1.5 5.8c0 0.3-0.1 0.7-0.2 1h-0.2q-0.1-0.5-0.2-1l-1.5-5.8h-1.5l2.2 7.5c0.1 0.2 0.3 0.3 0.5 0.3h0.3l-0.1 0.4c-0.3 1-0.8 1.6-1.9 2l0.2 0.9c1.7-0.1 2.5-1.5 3-2.8z"/>
							<path id="font_97_1" class="s2" d=""/>
							<path id="font_97_16" class="s2" d="m394.3 168.5c-0.9 0-1.8 0.6-2.7 1.4l-0.1-1.2h-1.2v7.8h1.4v-5.6c0.9-0.8 1.6-1.2 2.2-1.2 0.6 0 0.8 0.3 0.8 1.4v5.4h1.3v-5.8c0-1.4-0.6-2.2-1.7-2.2z"/>
							<path id="font_97_12" class="s2" d="m400.7 175.6c-1.2 0-1.7-0.4-1.9-2.3h2.8c1.1 0 1.6-0.8 1.6-2.2 0-1.7-0.8-2.6-2.8-2.6-2.1 0-3 1-3 4.1 0 3 0.9 4.1 3.1 4.1 0.8 0 1.9-0.1 2.5-0.4l-0.1-0.9c-0.7 0.1-1.6 0.2-2.2 0.2zm-0.2-5.9c1 0 1.3 0.4 1.3 1.4 0 0.6-0.1 1.1-0.5 1.1h-2.5c0.1-1.9 0.4-2.5 1.7-2.5z"/>
							<path id="font_97_18" class="s2" d="m408.4 168.5c-0.9 0-2 0.6-2.6 1.4l-0.1-1.2h-1.1v11.1h1.3v-2.3c0-0.6 0-1 0-1.6 0.6 0.6 1.4 0.8 2.2 0.8 1.6 0 2.4-1 2.4-4 0-2.7-0.6-4.2-2.1-4.2zm-0.7 7c-0.6 0-1.1-0.2-1.8-0.4v-4.2c0.8-0.8 1.4-1.2 2-1.2 0.9 0 1.2 0.8 1.2 3 0 2.3-0.3 2.8-1.4 2.8z"/>
							<path id="font_97_15" class="s2" d="m413.4 165.3h-1.4v9.4c0 1.3 0.6 2 1.6 2 0.3 0 1-0.1 1.3-0.2l-0.2-1.1h-0.6q-0.7 0-0.7-1z"/>
							<path id="font_97_16" class="s2" d="m419.8 168.5c-0.9 0-1.8 0.6-2.8 1.4l-0.1-1.2h-1.1v7.8h1.4l-0.1-5.6c1-0.8 1.6-1.2 2.3-1.2 0.6 0 0.7 0.3 0.7 1.4v5.4h1.4v-5.8c0-1.4-0.6-2.2-1.7-2.2z"/>
							<path id="font_97_26" class="s2" d="m426.1 165.8l-0.8-1-2.3 2.3 0.5 0.6zm-1.5 10.8v-7.9h-1.4v7.9z"/>
							<path id="font_97_10" class="s2" d="m429.1 168.5c-2.2 0-3 1.1-3 4.1 0 3 0.8 4.1 3 4.1 0.8 0 1.6-0.1 2.3-0.4l-0.2-0.9c-0.6 0.1-1.4 0.2-1.8 0.2-1.4 0-1.9-0.7-1.9-3 0-2.3 0.5-2.9 1.9-2.9 0.4 0 1.1 0 1.7 0.1l0.2-0.9c-0.7-0.3-1.6-0.4-2.2-0.4z"/>
							<path id="font_97_26" class="s2" d="m435.5 165.8l-0.7-1-2.4 2.3 0.5 0.6zm-1.5 10.8v-7.9h-1.4v7.9z"/>
							<path id="font_97_1" class="s2" d=""/>
							<path id="font_97_1" class="s2" d=""/>
							<path id="font_97_23" class="s2" d="m389.6 188.8h-1.5l-1.4 5.4-0.4 1.4h-0.1c-0.1-0.4-0.2-0.9-0.4-1.4l-1.4-5.4h-1.4l2.2 7.4c0.1 0.2 0.2 0.4 0.5 0.4h1.2q0.3 0 0.4-0.4z"/>
							<path id="font_97_24" class="s2" d="m396.3 188.8h-1.4l-1.5 5.8c-0.1 0.3-0.2 0.6-0.3 0.9h-0.1q-0.1-0.4-0.3-0.9l-1.4-5.8h-1.5l2.2 7.4c0.1 0.2 0.2 0.4 0.5 0.4h0.3l-0.1 0.3c-0.4 1-0.9 1.7-1.9 2.1l0.1 0.9c1.7-0.1 2.6-1.5 3-2.9z"/>
							<path id="font_97_13" class="s2" d="m401.3 188.6c-0.9 0-1.8 0.5-2.7 1.3 0-0.4 0.1-0.9 0.1-1.5v-3.1h-1.4v11.3h1.4v-5.7c0.9-0.8 1.5-1.2 2.2-1.2 0.6 0 0.8 0.4 0.8 1.4v5.5h1.3v-5.9c0-1.4-0.6-2.1-1.7-2.1z"/>
							<path id="font_97_15" class="s2" d="m406.1 185.3h-1.4v9.4c0 1.3 0.7 2 1.6 2 0.4 0 1-0.1 1.3-0.2l-0.2-1h-0.5q-0.8 0-0.8-1.1z"/>
							<path id="font_97_25" class="s2" d="m410.6 187.8l2.6-2-0.7-1-2.4 2.3zm1 0.8c-0.8 0-2.2 0.2-3.1 0.4l0.1 1c1-0.1 2.1-0.2 2.7-0.2 1 0 1.2 0.4 1.2 1.4v0.6h-2.4c-1.2 0-1.9 0.7-1.9 2v0.8c0 1.4 0.8 2.2 2 2.2 1.1 0 2-0.7 2.5-1.3l0.1 1.1h1.1v-5.4c0-1.9-0.8-2.6-2.3-2.6zm-1.1 7c-0.6 0-0.9-0.3-0.9-1.1v-0.5c0-0.7 0.2-1.1 0.7-1.1h2.2v1.6c-0.7 0.8-1.5 1.1-2 1.1z"/>
							<path id="font_97_27" class="s2" d="m420.2 185.5l-0.5-0.6-1.6 1.4h-0.1l-1.7-1.4-0.4 0.6 1.8 2h0.6zm-2.5 3.1c-1.8 0-2.5 0.4-2.5 2.2 0 1.3 0.4 1.8 1.4 2.2l1.8 0.5c0.5 0.1 0.9 0.3 0.9 1.1 0 0.9-0.4 1-1.8 1-0.8 0.1-1.6 0-2.1 0l-0.1 1c1.1 0.2 2.1 0.2 2.5 0.2 2 0 2.8-0.3 2.8-2.2 0-1.4-0.4-1.9-1.5-2.2l-1.7-0.5c-0.6-0.2-0.9-0.3-0.9-1.1 0-1 0.3-1 1.4-1 0.8 0 1.6 0 2.4 0.1l0.1-1c-0.8-0.2-1.9-0.3-2.7-0.3z"/>
							<path id="font_97_14" class="s2" d="m423.9 192.7l2.2 3.9h1.5l-2.1-3.8c-0.1-0.2-0.3-0.5-0.4-0.6 0.1-0.1 0.3-0.4 0.4-0.6l1.9-2.8h-1.6l-1.9 2.9h-0.7c0.1-0.5 0.1-0.9 0.1-1.4v-5h-1.4v11.3h1.4v-2.7q0-0.6-0.1-1.2z"/>
							<path id="font_97_22" class="s2" d="m434.1 188.8h-1.4v5.7c-0.8 0.7-1.4 1.1-2 1.1-0.6 0-0.8-0.4-0.8-1.4v-5.4h-1.4v5.8c0 1.4 0.6 2.2 1.7 2.2 0.9 0 1.8-0.5 2.7-1.3l0.1 1.1h1.1z"/>
							<path id="font_97_1" class="s2" d=""/>
							<path id="font_98_5" class="s2" d="m357.8 205.4c-0.9 0-1.7 0-2.9 0.4v1.5c1.2-0.2 1.8-0.2 2.7-0.2 0.8 0 1.2 0.1 1.2 0.9 0 0.9-0.6 2-1.6 3.4l-2.1 3.2c-0.2 0.2-0.3 0.5-0.3 0.8v1.2h6.3v-1.9h-2.6c-0.4 0-0.9 0-1.4 0.1l2.3-3.1c1.2-1.6 1.4-2.5 1.4-3.9 0-2-1.2-2.4-3-2.4z"/>
							<path id="font_98_7" class="s2" d="m366 209.3c-0.8 0-1.4 0.2-1.9 0.8 0.1-2.7 0.5-3.1 1.8-3.1 0.9 0 1.3 0 2 0l0.1-1.4c-0.9-0.2-1.7-0.2-2.1-0.2-2.5 0-3.8 0.7-3.8 5.8 0 4.4 0.7 5.6 3.4 5.6 2.5 0 3.1-1.5 3.1-3.9 0-2.6-0.6-3.6-2.6-3.6zm-0.5 5.8c-1.3 0-1.4-0.7-1.4-3.6 0.5-0.5 0.8-0.6 1.4-0.6 0.9 0 1.2 0.5 1.2 2 0 1.5-0.1 2.2-1.2 2.2z"/>
							<path id="font_98_6" class="s2" d="m376.8 212.6h-1.2v-4.9h-1.5l-0.3 1.8v3.1h-2.1c-0.2 0-0.4-0.2-0.2-0.6l2-6.5h-1.9l-2.2 6.7c-0.3 0.9 0.1 1.9 1 1.9h3.4v2.5h1.8v-2.5h0.1l1.1-0.2z"/>
							<path id="font_98_3" class="s2" d="m378.5 217.7l5.1-12.2h-1.6l-5.1 12.2z"/>
							<path id="font_98_5" class="s2" d="m387.3 205.4c-0.9 0-1.7 0-3 0.4l0.1 1.5c1.2-0.2 1.8-0.2 2.7-0.2 0.8 0 1.2 0.1 1.2 0.9 0 0.9-0.6 2-1.6 3.4l-2.2 3.2c-0.2 0.2-0.2 0.5-0.2 0.8v1.2h6.2v-1.9h-2.5c-0.5 0-1 0-1.4 0.1l2.2-3.1c1.2-1.6 1.5-2.5 1.5-3.9 0-2-1.2-2.4-3-2.4z"/>
							<path id="font_98_4" class="s2" d="m395 205.3c-2.5 0-3.4 1.6-3.4 5.8 0 4.1 0.9 5.7 3.4 5.7 2.6 0 3.5-1.6 3.5-5.7 0-4.2-0.9-5.8-3.5-5.8zm0 1.7c1.2 0 1.5 1 1.5 4.1 0 3.1-0.3 4-1.5 4-1.1 0-1.4-0.9-1.4-4 0-3.1 0.3-4.1 1.4-4.1z"/>
							<path id="font_98_5" class="s2" d="m402.6 205.4c-0.9 0-1.7 0-3 0.4l0.1 1.5c1.2-0.2 1.8-0.2 2.7-0.2 0.8 0 1.2 0.1 1.2 0.9 0 0.9-0.6 2-1.6 3.4l-2.2 3.2c-0.2 0.2-0.2 0.5-0.2 0.8v1.2h6.3v-1.9h-2.6c-0.5 0-1 0-1.4 0.1l2.3-3.1c1.1-1.6 1.4-2.5 1.4-3.9 0-2-1.2-2.4-3-2.4z"/>
							<path id="font_98_4" class="s2" d="m410.3 205.3c-2.5 0-3.4 1.6-3.4 5.8 0 4.1 0.9 5.7 3.4 5.7 2.6 0 3.5-1.6 3.5-5.7 0-4.2-0.9-5.8-3.5-5.8zm0 1.7c1.2 0 1.5 1 1.5 4.1 0 3.1-0.3 4-1.5 4-1.1 0-1.4-0.9-1.4-4 0-3.1 0.3-4.1 1.4-4.1z"/>
							<path id="font_98_1" class="s2" d=""/>
							<path id="font_98_18" class="s2" d="m420.7 205.4c-2.3 0-3.2 0.4-3.2 2.9 0 1.7 0.5 2.7 1.8 3.2l1.8 0.7c0.5 0.3 0.8 0.5 0.8 1.5 0 1.1-0.2 1.3-1.3 1.3-0.5 0-1.1 0-2.9 0l-0.1 1.4c1.3 0.4 2.5 0.4 3 0.4 2.5 0 3.3-0.6 3.3-3.1 0-1.6-0.4-2.7-1.8-3.2l-1.7-0.7c-0.6-0.2-0.9-0.5-0.9-1.4 0-1.2 0.3-1.3 1.3-1.3 0.9 0 2 0 2.7 0l0.1-1.4c-1-0.3-2-0.3-2.9-0.3z"/>
							<path id="font_98_20" class="s2" d="m429.1 208.5c-0.9 0-1.7 0.5-2.3 1.3 0.2-0.6 0.2-1.1 0.2-1.8v-2.6h-1.9v10.8c0.7 0.4 2.3 0.6 3.2 0.6 2.6 0 3.1-1.7 3.1-4.2 0-2.9-0.7-4.1-2.3-4.1zm-0.8 6.7c-0.4 0.1-0.9 0-1.3-0.1v-4.1c0.4-0.5 0.8-0.8 1.3-0.8 1 0 1.1 0.6 1.1 2.4 0 2-0.3 2.6-1.1 2.6z"/>
							<path id="font_98_2" class="s2" d="m433.1 214.4c-0.5 0-0.7 0.2-0.7 0.7v0.8c0 0.5 0.2 0.7 0.7 0.7h0.6c0.5 0 0.7-0.2 0.7-0.7v-0.8c0-0.5-0.2-0.7-0.7-0.7z"/>
							<path id="font_98_1" class="s2" d=""/>
						</g>
					</g>
				</g>
				<g style="opacity: .9">
					<g id="Clip-Path" clip-path="url(#cp22)">
						<g>
							<path id="font_100_7" class="s2" d="m382.1 354.3c-2 0-2.9 0.3-2.9 2.9 0 1.7 0.4 2.7 1.7 3.1l1.8 0.6c0.7 0.2 1 0.5 1 1.8 0 1.5-0.3 1.8-1.6 1.8-0.6 0-1-0.1-2.7-0.1l-0.1 1c1.2 0.3 2.2 0.3 2.8 0.3 2.2 0 3.1-0.4 3.1-3 0-1.7-0.4-2.7-1.8-3.1l-1.8-0.6c-0.7-0.2-1-0.5-1-1.8 0-1.6 0.4-1.6 1.6-1.6 0.8 0 1.8 0 2.6 0l0.1-1c-1-0.2-1.9-0.3-2.8-0.3z"/>
							<path id="font_100_21" class="s2" d="m388.3 358.8h2v-1.1h-2v-2.3h-1.3v2.3l-1.2 0.1v1h1.2v4.8c0 1.3 0.6 2.1 1.7 2.1 0.3 0 1.1-0.1 1.5-0.2l-0.2-1.1h-0.8c-0.6 0-0.9-0.3-0.9-1z"/>
							<path id="font_100_8" class="s2" d="m394.4 357.5c-0.8 0-2.2 0.2-3 0.4l0.1 1c1-0.1 2-0.2 2.6-0.2 1 0 1.3 0.4 1.3 1.3v0.7h-2.5c-1.2 0-1.8 0.7-1.8 2v0.8c0 1.4 0.8 2.2 1.9 2.2 1.2 0 2-0.8 2.5-1.3l0.2 1.1h1v-5.5c0-1.8-0.8-2.5-2.3-2.5zm-1.1 7c-0.6 0-0.8-0.3-0.8-1.2v-0.5c0-0.6 0.1-1 0.7-1h2.2v1.6c-0.8 0.8-1.6 1.1-2.1 1.1z"/>
							<path id="font_100_23" class="s2" d="m404.2 357.7h-1.4l-1.4 5.5-0.4 1.4h-0.2c-0.1-0.5-0.2-1-0.3-1.4l-1.4-5.5h-1.5l2.3 7.5c0 0.2 0.2 0.3 0.4 0.3h1.2q0.4 0 0.5-0.3z"/>
							<path id="font_100_9" class="s2" d="m408.8 357.5c-0.9 0-1.7 0.5-2.4 1.4 0.1-0.5 0.1-1 0.1-1.7v-2.9h-1.3v10.9c0.8 0.3 2.1 0.5 3 0.5 2.3 0 2.9-1.4 2.9-4.1 0-2.9-0.8-4.1-2.3-4.1zm-0.6 7.1c-0.5 0-1.1-0.1-1.7-0.3v-4.5c0.7-0.7 1.2-1.1 1.8-1.1 1.1 0 1.4 0.8 1.4 2.9 0 2.2-0.5 3-1.5 3z"/>
							<path id="font_100_24" class="s2" d="m418.2 357.7h-1.5l-1.4 5.9c-0.1 0.2-0.2 0.6-0.3 0.9h-0.2q-0.1-0.5-0.2-0.9l-1.5-5.9h-1.4l2.1 7.5c0.1 0.2 0.3 0.3 0.5 0.3h0.3l-0.1 0.4c-0.3 1-0.8 1.6-1.8 2l0.1 0.9c1.7-0.1 2.6-1.4 3-2.8z"/>
							<path id="font_100_1" class="s2" d=""/>
							<path id="font_100_11" class="s2" d="m426.9 354.3h-1.4v2.4c0 0.6 0 1 0.1 1.5-0.7-0.4-1.4-0.7-2.2-0.7-1.6 0-2.4 1.1-2.4 4.1 0 2.7 0.6 4.1 2.2 4.1 1 0 1.9-0.5 2.5-1.3l0.1 1.1h1.1zm-3.2 10.3c-0.9 0-1.3-0.7-1.3-3 0-2.3 0.4-2.8 1.4-2.8 0.6 0 1.1 0.1 1.7 0.4v4.3c-0.8 0.8-1.1 1.1-1.8 1.1z"/>
							<path id="font_100_17" class="s2" d="m431.4 357.5c-2.3 0-3.1 1.2-3.1 4.1 0 3 0.8 4.1 3.1 4.1 2.2 0 3-1.1 3-4.1 0-2.9-0.8-4.1-3-4.1zm0 1.2c1.2 0 1.6 0.7 1.6 2.9 0 2.3-0.4 3-1.6 3-1.3 0-1.7-0.7-1.7-3 0-2.2 0.4-2.9 1.7-2.9z"/>
							<path id="font_100_1" class="s2" d=""/>
							<path id="font_100_1" class="s2" d=""/>
							<path id="font_100_19" class="s2" d="m384.3 377.6h-0.3c-0.8 0-1.8 0.5-2.6 1.4l-0.2-1.2h-1v7.8h1.3v-5.8c1-0.6 1.6-0.9 2.2-0.9h0.4z"/>
							<path id="font_100_17" class="s2" d="m387.8 377.6c-2.2 0-3 1.1-3 4.1 0 3 0.8 4.1 3 4.1 2.2 0 3-1.1 3-4.1 0-3-0.8-4.1-3-4.1zm0 1.1c1.3 0 1.7 0.7 1.7 3 0 2.3-0.4 2.9-1.7 2.9-1.2 0-1.6-0.6-1.6-2.9 0-2.3 0.4-3 1.6-3z"/>
							<path id="font_100_14" class="s2" d="m394.3 381.7l2.1 3.9h1.5l-2-3.8c-0.2-0.2-0.4-0.5-0.5-0.6 0.1-0.1 0.3-0.4 0.5-0.6l1.8-2.8h-1.5l-2 2.9h-0.6c0-0.5 0-0.9 0-1.4v-4.9h-1.3v11.2h1.3v-2.7q0-0.6 0-1.2z"/>
							<path id="font_100_22" class="s2" d="m404.4 377.8h-1.3v5.7c-0.9 0.7-1.5 1.1-2.1 1.1-0.6 0-0.8-0.4-0.8-1.4v-5.4h-1.4v5.8c0 1.4 0.6 2.2 1.8 2.2 0.9 0 1.7-0.5 2.6-1.3l0.1 1.1h1.1z"/>
							<path id="font_100_1" class="s2" d=""/>
							<path id="font_100_4" class="s2" d="m411.9 385.6v-11.1h-1.4l-2.2 1.1 0.2 1.1 2.1-0.9q-0.1 0.5-0.1 1v8.8z"/>
							<path id="font_100_6" class="s2" d="m416.8 374.3c-2.2 0-3 1.3-3 3.8 0 2.1 0.6 3.6 2.5 3.6 0.9 0 1.5-0.2 2.1-1 0 3.1-0.5 3.8-2.1 3.8-1 0-1.3 0-1.9 0l-0.1 1c0.8 0.3 1.6 0.3 2 0.3 2.5 0 3.5-0.9 3.5-5.9 0-4.2-0.4-5.6-3-5.6zm-0.1 6.3c-1.2 0-1.5-0.9-1.5-2.5 0-1.6 0.2-2.6 1.6-2.6 1.5 0 1.6 1 1.6 4.2-0.6 0.7-1.1 0.9-1.7 0.9z"/>
							<path id="font_100_6" class="s2" d="m424 374.3c-2.1 0-2.9 1.3-2.9 3.8 0 2.1 0.6 3.6 2.4 3.6 1 0 1.6-0.2 2.2-1-0.1 3.1-0.6 3.8-2.2 3.8-0.9 0-1.2 0-1.9 0l-0.1 1c0.9 0.3 1.6 0.3 2.1 0.3 2.5 0 3.5-0.9 3.5-5.9 0-4.2-0.4-5.6-3.1-5.6zm-0.1 6.3c-1.1 0-1.5-0.9-1.5-2.5 0-1.6 0.3-2.6 1.6-2.6 1.6 0 1.7 1 1.7 4.2-0.7 0.7-1.1 0.9-1.8 0.9z"/>
							<path id="font_100_5" class="s2" d="m431.3 374.3c-0.8 0-1.6 0.1-2.8 0.4l0.1 1.1c1.1-0.2 1.7-0.2 2.5-0.2 1 0 1.5 0.1 1.6 1.2 0 1-0.6 2.1-1.7 3.7l-2.4 3.6c-0.1 0.2-0.2 0.4-0.2 0.6v0.9h6v-1.4h-2.9c-0.4 0-1 0-1.4 0.1l2.4-3.6c1.2-1.6 1.6-2.6 1.6-4 0-2-1.1-2.4-2.8-2.4z"/>
						</g>
					</g>
				</g>
			</g>
		</g>
		<path class="s0" d="m435 103.6h-12.4v10.9h-14.6v-10.9h-12.4l19.7-21.9z"/>
		<path class="s8" d="m395.6 137.7h12.4v-10.9h14.6v10.9h12.4l-19.7 21.9z"/>
		<g id="Clip-Path" clip-path="url(#cp23)">
			<g>
				<path class="s11" d="m397.6 329.6h10.4 1v-1-9.9h12.6v9.9 1h1 10.3q-8.8 9.8-17.6 19.6-8.8-9.8-17.7-19.6z"/>
			</g>
		</g>
	</g>
</svg>