<svg version="1.2" xmlns="http://www.w3.org/2000/svg" viewBox="0 0 84 84" width="84" height="84">
	<title>New Project</title>
	<style>
		.s0 { fill: #000000 } 
	</style>
	<path id="Layer copy" class="s0" d="m71.4 0.9c1-2.2-30.3 33.4-30.5 31.8-0.4-0.5-34.7-35.9-32.5-32.4-1.1-2.7-10.3 13.3-8.1 12.7-2.1 0.9 32.4 29.1 32.5 29.1-1.7-1.2-34.2 31.6-32.5 30.8-0.5 0.5 9.5 10.4 9.1 11-1.3 2.1 31.9-30.6 31.5-31.7-0.2 0.7 32.5 33.1 32.7 31.7 1.2 1.2 11.4-10.4 10.3-11.3 1.1 0.7-33.2-28.8-33-30.2 0.8-1.5 33.5-33 30.5-29.7 0.4-1-8.1-14.6-10-11.8z"/>
</svg>